<?xml version="1.0" encoding="UTF-8"?>
<svg version="1.1" xmlns="http://www.w3.org/2000/svg" width="1000" height="1000">
<path d="M0 0 C330 0 660 0 1000 0 C1000 330 1000 660 1000 1000 C670 1000 340 1000 0 1000 C0 670 0 340 0 0 Z " fill="#FEFEFE" transform="translate(0,0)"/>
<path d="M0 0 C2.31 0 4.62 0 7 0 C11.56144794 8.3027861 14.81412927 17.04891406 18.12686157 25.89749146 C19.88135564 30.5819536 21.65487655 35.25922269 23.42578125 39.9375 C23.7977916 40.92154312 24.16980194 41.90558624 24.55308533 42.91944885 C28.7435033 53.99145451 33.02458117 65.0279675 37.3125 76.0625 C38.11256498 78.12247094 38.91261371 80.18244819 39.71264648 82.24243164 C40.92388681 85.36078003 42.13530138 88.47906037 43.34712219 91.59718323 C46.19141967 98.91599969 49.03077327 106.23671875 51.8671875 113.55859375 C59.54405462 133.37413249 67.23443833 153.18416332 74.9680481 172.97763062 C80.13153358 186.19436594 85.27156935 199.42007576 90.39929199 212.65072632 C91.61475353 215.78606872 92.83117708 218.92103631 94.04785156 222.0559082 C97.40974052 230.72045422 100.76957983 239.38559135 104.09274292 248.06507874 C105.35008155 251.34757135 106.61235246 254.6281558 107.87518311 257.90853882 C108.4448632 259.3925966 109.01208866 260.8775997 109.57647705 262.36367798 C117.88100516 285.52470617 117.88100516 285.52470617 135.75 301.30859375 C137.92173459 301.97594969 139.88949296 302.27677387 142.140625 302.54321289 C143.41421875 302.69395264 144.6878125 302.84469238 146 303 C148.17160136 297.33090843 150.34023187 291.66069179 152.50634766 285.98950195 C153.24059716 284.06830656 153.97559858 282.14739832 154.71142578 280.22680664 C158.354128 270.71751511 161.98159249 261.20370293 165.40625 251.61328125 C165.76355698 250.62365135 165.76355698 250.62365135 166.12808228 249.61402893 C169.88257097 238.9683393 173.95494431 225.15573742 169.8125 214.125 C165.49139756 206.67482339 159.59294841 203.71109843 151.8125 200.8125 C147.11333954 199.81103957 142.48695052 199.51350863 137.6953125 199.24609375 C135 199 135 199 134 198 C134 195.36 134 192.72 134 190 C161.06 190 188.12 190 216 190 C216 192.64 216 195.28 216 198 C214.74896484 198.60134766 214.74896484 198.60134766 213.47265625 199.21484375 C197.05326146 207.5091772 189.22878713 219.93988559 182.27734375 236.62890625 C181.93468475 237.44761703 181.59202576 238.26632782 181.23898315 239.10984802 C177.18793123 248.85739306 173.40398569 258.70712746 169.625 268.5625 C168.86803995 270.52956848 168.11079363 272.49652682 167.35327148 274.46337891 C164.33141839 282.31275968 161.319303 290.16587089 158.30859375 298.01953125 C157.56005293 299.97141442 156.81136164 301.92323989 156.0625 303.875 C155.68915527 304.84824219 155.31581055 305.82148437 154.93115234 306.82421875 C151.29340493 316.28265983 147.59086201 325.71551123 143.8918457 335.15011597 C135.61612862 356.25810474 127.42578632 377.39805268 119.27148438 398.55322266 C118.34377134 400.95996917 117.41603702 403.36670747 116.48828125 405.7734375 C116.03115753 406.9593045 115.57403381 408.14517151 115.10305786 409.36697388 C109.55021999 423.76711452 103.96600133 438.15507513 98.37963867 452.54223633 C95.11548849 460.95076265 91.85393849 469.36003735 88.6328125 477.78515625 C88.38789062 478.42521103 88.14296875 479.06526581 87.890625 479.72471619 C86.81490151 482.53698267 85.74218553 485.35032652 84.67480469 488.16577148 C84.32579102 489.08044189 83.97677734 489.9951123 83.6171875 490.9375 C83.32440918 491.70964844 83.03163086 492.48179687 82.72998047 493.27734375 C82 495 82 495 81 496 C78.66702567 496.04092937 76.33294775 496.04241723 74 496 C67.32090453 479.44794628 60.81336798 462.83457028 54.3886261 446.18244934 C51.70281698 439.22400421 48.9985234 432.2727858 46.29275513 425.32208252 C37.99307923 404.00087408 29.72492594 382.66745271 21.45556641 361.33447266 C19.04758578 355.12257195 16.63911106 348.91086291 14.23046875 342.69921875 C13.83955551 341.6910762 13.44864227 340.68293365 13.04588318 339.64424133 C11.07720996 334.56721154 9.10840266 329.49023378 7.1394043 324.41333008 C3.10317483 314.00579563 -0.93081406 303.59740054 -4.9609375 293.1875 C-8.54814884 283.92165675 -12.14140459 274.6581809 -15.74072266 265.39703369 C-17.80877712 260.07428235 -19.86931901 254.74874125 -21.92105103 249.41967773 C-23.09015583 246.38754735 -24.26607185 243.3580934 -25.44390869 240.3293457 C-25.96722314 238.97943454 -26.48769674 237.62841735 -27.00482178 236.27612305 C-35.02521452 214.85432455 -35.02521452 214.85432455 -52.0703125 200.76171875 C-54.22299138 199.87750613 -54.22299138 199.87750613 -57.4375 199 C-58.283125 198.67 -59.12875 198.34 -60 198 C-60.875 195.875 -60.875 195.875 -61 194 C-62.95673926 194.24239767 -62.95673926 194.24239767 -65 195 C-66.38050147 197.7170779 -67.45970478 200.27579795 -68.5 203.125 C-69.19388987 204.94796256 -69.88790913 206.77087587 -70.58203125 208.59375 C-70.96182129 209.60695313 -71.34161133 210.62015625 -71.73291016 211.6640625 C-73.12239692 215.32224114 -74.5627201 218.95889299 -76.01171875 222.59375 C-89.91513411 253.92617298 -89.91513411 253.92617298 -90.09375 286.9921875 C-87.10218428 293.45473652 -83.8933383 296.5042237 -77.18359375 299.08203125 C-69.47670388 301.70663996 -62.11714879 302.73429955 -54 303 C-54 305.97 -54 308.94 -54 312 C-95.085 311.505 -95.085 311.505 -137 311 C-137 308.69 -137 306.38 -137 304 C-134.8046875 302.234375 -134.8046875 302.234375 -132 301 C-108.25963336 287.71760838 -101.58788539 261.75529863 -92.3125 237.6875 C-91.47422773 235.51812505 -90.63568042 233.34885636 -89.796875 231.1796875 C-88.0583474 226.68318867 -86.32099136 222.18623986 -84.58447266 217.68896484 C-80.95716758 208.29756016 -77.31540411 198.91176868 -73.67385864 189.52587891 C-71.70111969 184.44071025 -69.72955602 179.35508594 -67.7578125 174.26953125 C-64.9679012 167.07421169 -62.17740178 159.87912061 -59.38621521 152.68429565 C-57.38229311 147.51876835 -55.37860448 142.35315051 -53.375 137.1875 C-52.98089935 136.17147705 -52.58679871 135.1554541 -52.18075562 134.10864258 C-46.89912716 120.4910446 -41.63008455 106.86864791 -36.37097168 93.24234009 C-24.35792262 62.11834628 -12.22266601 31.04225544 0 0 Z " fill="#1A1D1E" transform="translate(466,228)"/>
<path d="M0 0 C0.99 0 1.98 0 3 0 C3.18997559 0.56058105 3.37995117 1.12116211 3.57568359 1.69873047 C7.37389808 12.86345233 11.31017304 23.95548692 15.58984375 34.9453125 C19.30412585 44.54452299 22.95407727 54.16572182 26.54296875 63.8125 C26.77443352 64.43443363 27.00589828 65.05636726 27.24437714 65.69714737 C28.89403233 70.1307087 30.54103562 74.56525293 32.1875 79 C34.07514713 84.08395786 35.96448995 89.16728033 37.85546875 94.25 C38.3019577 95.45164795 38.74844666 96.6532959 39.20846558 97.89135742 C42.06882463 105.56828472 44.9872718 113.21943781 48.06181335 120.81347656 C49.21605294 123.71070049 50 125.84817126 50 129 C17.33 129 -15.34 129 -49 129 C-45.62670623 118.88011869 -45.62670623 118.88011869 -43.79296875 114.078125 C-43.37853516 112.98951172 -42.96410156 111.90089844 -42.53710938 110.77929688 C-42.09173828 109.61462891 -41.64636719 108.44996094 -41.1875 107.25 C-40.45731184 105.33391589 -39.72781971 103.41756759 -38.99832153 101.5012207 C-38.48118321 100.14290277 -37.96382454 98.78466871 -37.44625854 97.42651367 C-34.58226847 89.90978206 -31.73760571 82.3857612 -28.89303589 74.86166382 C-27.99820803 72.49526108 -27.10284151 70.12906289 -26.20727539 67.76293945 C-23.69601542 61.1280303 -21.18512844 54.49299326 -18.68183899 47.85507202 C-13.50176388 34.12131055 -8.25546643 20.42247717 -2.73779297 6.8203125 C-1.81757382 4.54991078 -0.90749638 2.27551332 0 0 Z " fill="#FCFCFC" transform="translate(453,285)"/>
<path d="M0 0 C32.01 0 64.02 0 97 0 C93.62492895 10.12521315 93.62492895 10.12521315 91.89379883 14.67944336 C91.50464294 15.70589462 91.11548706 16.73234589 90.71453857 17.78990173 C90.29956116 18.8788826 89.88458374 19.96786346 89.45703125 21.08984375 C89.01603088 22.25145523 88.57503052 23.41306671 88.1206665 24.60987854 C86.93215915 27.73930534 85.74204217 30.86811011 84.5511055 33.99661255 C83.31010105 37.2576903 82.07107699 40.51952038 80.83178711 43.78125 C78.59166027 49.67612759 76.34961466 55.57027314 74.10658932 61.46404839 C72.18769783 66.50624227 70.27034627 71.54902039 68.35334778 76.5919342 C66.59066116 81.22830984 64.82665895 85.86418444 63.0625 90.5 C62.74842194 91.32571503 62.43434387 92.15143005 62.11074829 93.00216675 C57.79138174 104.35478246 53.41634054 115.68475567 49 127 C48.34 127 47.68 127 47 127 C46.72010727 126.24944336 46.44021454 125.49888672 46.15184021 124.72558594 C30.234166 82.02725516 30.234166 82.02725516 14.27615356 39.34399414 C13.68793367 37.7731767 13.10008702 36.20221943 12.51266479 34.63110352 C11.70491043 32.47108193 10.89590587 30.31153604 10.0859375 28.15234375 C9.83733475 27.48939301 9.58873199 26.82644226 9.33259583 26.1434021 C7.93297149 22.42719247 6.50447002 18.72363218 5.05175781 15.02783203 C4.72680328 14.20005753 4.40184875 13.37228302 4.06704712 12.51942444 C3.43594642 10.91597943 2.80177583 9.31373841 2.16415405 7.71287537 C0 2.21926243 0 2.21926243 0 0 Z " fill="#FDFDFD" transform="translate(511,542)"/>
<path d="M0 0 C3.6394311 9.598798 7.27371372 19.19952917 10.90170288 28.80265808 C12.63327166 33.38571638 14.36643072 37.96816062 16.10302734 42.54931641 C17.8251297 47.0926471 19.54269794 51.63766926 21.2572937 56.18383789 C21.9153273 57.92629485 22.57491665 59.66816513 23.2361145 61.40942383 C24.16680599 63.86123438 25.09182984 66.31511544 26.015625 68.76953125 C26.28900192 69.48583206 26.56237885 70.20213287 26.84403992 70.94013977 C29.92081574 79.15524584 32.9571818 87.64350245 29.8125 96.25 C26.23346172 101.68026497 22.1828811 103.60978403 16 105 C13.02996215 105.47520606 10.05354335 105.81231166 7.0625 106.125 C6.28326172 106.21136719 5.50402344 106.29773438 4.70117188 106.38671875 C2.8013663 106.59651323 0.90075826 106.79901994 -1 107 C-5.91594481 95.72462247 -10.07153371 84.16586806 -14.3125 72.625 C-15.04079561 70.64965845 -15.76931002 68.67439756 -16.49804688 66.69921875 C-18.30660579 61.79425598 -20.10803987 56.88671331 -21.90679932 51.97814941 C-23.03084738 48.91596411 -24.16054681 45.85589896 -25.29052734 42.79589844 C-26.02069455 40.80931342 -26.75068173 38.82266222 -27.48046875 36.8359375 C-27.98988762 35.46183212 -27.98988762 35.46183212 -28.50959778 34.05996704 C-28.82249252 33.20534882 -29.13538727 32.35073059 -29.45776367 31.47021484 C-29.73238937 30.72508636 -30.00701508 29.97995789 -30.28996277 29.21224976 C-32.37672752 22.71055575 -33.32584137 16.05519968 -30.5625 9.6875 C-23.46064745 2.23921562 -10.0403098 0 0 0 Z " fill="#FCFCFC" transform="translate(508,425)"/>
<path d="M0 0 C1.14721836 3.78662284 0.5429649 5.36949436 -1 9 C-1 10.32 -1 11.64 -1 13 C-0.01 10.69 0.98 8.38 2 6 C4.30143236 9.45214853 4.13833854 10.23479324 3.625 14.1875 C3.51414062 15.08855469 3.40328125 15.98960937 3.2890625 16.91796875 C3.19367188 17.60503906 3.09828125 18.29210937 3 19 C3.66 19 4.32 19 5 19 C4.91298828 20.77503906 4.91298828 20.77503906 4.82421875 22.5859375 C4.31075281 35.58177418 4.31075281 35.58177418 10 47 C18.07887422 54.67493051 31.39452252 55.65284853 42 56 C42 58.97 42 61.94 42 65 C0.915 64.505 0.915 64.505 -41 64 C-41 61.69 -41 59.38 -41 57 C-38.8046875 55.234375 -38.8046875 55.234375 -36 54 C-14.87037674 42.17828152 -8.17624129 21.77919139 0 0 Z " fill="#1B1E1F" transform="translate(370,475)"/>
<path d="M0 0 C0.99 0 1.98 0 3 0 C3.495 1.485 3.495 1.485 4 3 C3.34 3 2.68 3 2 3 C2 4.65 2 6.3 2 8 C3.32 6.35 4.64 4.7 6 3 C7.37372972 8.22784684 6.38563277 11.7146572 4.37109375 16.55078125 C4.0745137 17.29693192 3.77793365 18.04308258 3.47236633 18.81184387 C2.81968636 20.44915499 2.16033939 22.08382017 1.49523926 23.71612549 C0.03294475 27.30553956 -1.39709439 30.9075586 -2.82998657 34.50878906 C-3.61424558 36.47853858 -4.40024706 38.44759507 -5.18783569 40.41601562 C-9.83489358 52.04140219 -14.32560616 63.72666266 -18.82064819 75.41146851 C-20.24433471 79.11028127 -21.67106792 82.80790378 -23.09887695 86.50512695 C-28.6144277 100.78711451 -28.6144277 100.78711451 -34.08428955 115.0866394 C-35.21832958 118.06573377 -36.35669412 121.04316523 -37.4954834 124.02044678 C-38.22773025 125.94157298 -38.9523999 127.86543938 -39.67675781 129.78955078 C-40.09795898 130.89024902 -40.51916016 131.99094727 -40.953125 133.125 C-41.30536133 134.05570313 -41.65759766 134.98640625 -42.02050781 135.9453125 C-43 138 -43 138 -45 139 C-45.98120464 135.94736336 -45.98120464 134.05263664 -45 131 C-46.32 131 -47.64 131 -49 131 C-47.59465539 124.8490136 -45.65576529 119.09698089 -43.38671875 113.21484375 C-43.02469864 112.26529312 -42.66267853 111.31574249 -42.28968811 110.3374176 C-41.09327805 107.20244198 -39.89041653 104.06998416 -38.6875 100.9375 C-37.84430565 98.7319317 -37.00154025 96.52619938 -36.15917969 94.3203125 C-34.3739508 89.64736458 -32.58610582 84.97542919 -30.79638672 80.30419922 C-27.9622013 72.90488293 -25.13846102 65.50160605 -22.31640625 58.09765625 C-6.77530091 17.33630816 -6.77530091 17.33630816 0 0 Z " fill="#121412" transform="translate(608,541)"/>
<path d="M0 0 C23.1 0.66 46.2 1.32 70 2 C69.67 2.66 69.34 3.32 69 4 C67.89487061 4.01458252 66.78974121 4.02916504 65.65112305 4.04418945 C61.55264861 4.10214266 57.45472533 4.17937519 53.35668945 4.26245117 C51.58269188 4.29571464 49.8085881 4.32374218 48.03442383 4.34643555 C45.48472824 4.37995602 42.93600708 4.43226865 40.38671875 4.48828125 C39.59287277 4.49467117 38.79902679 4.5010611 37.98112488 4.50764465 C33.72880798 4.53169933 33.72880798 4.53169933 30.14379883 6.55151367 C29.57761841 7.2685144 29.57761841 7.2685144 29 8 C26.3125 7.6875 26.3125 7.6875 24 7 C24 7.99 24 8.98 24 10 C24.5775 10.09667969 25.155 10.19335938 25.75 10.29296875 C28.47353561 11.14880199 29.89711078 12.39443502 32 14.3125 C32.66 14.90675781 33.32 15.50101562 34 16.11328125 C34.66 16.73589844 35.32 17.35851562 36 18 C36.69174316 18.57032959 37.38348633 19.14065918 38.09619141 19.72827148 C40.59013145 22.70417712 40.48964153 24.38803438 40.4609375 28.234375 C40.45707031 29.44867188 40.45320312 30.66296875 40.44921875 31.9140625 C40.41248047 33.81285156 40.41248047 33.81285156 40.375 35.75 C40.37371094 37.00039063 40.37242187 38.25078125 40.37109375 39.5390625 C40.3094399 46.01956722 39.94511099 51.80676661 38 58 C37.34 58 36.68 58 36 58 C36 59.32 36 60.64 36 62 C35.34 62 34.68 62 34 62 C34 63.98 34 65.96 34 68 C33.34 68 32.68 68 32 68 C31.43713415 61.10489328 33.13828449 55.15363456 35.02734375 48.5859375 C37.10983041 40.90833608 38.7800173 31.78689495 35.8125 24.125 C31.49139756 16.67482339 25.59294841 13.71109843 17.8125 10.8125 C13.11333954 9.81103957 8.48695052 9.51350863 3.6953125 9.24609375 C1 9 1 9 0 8 C0 5.36 0 2.72 0 0 Z " fill="#131413" transform="translate(600,418)"/>
<path d="M0 0 C0.66 0 1.32 0 2 0 C2.84592485 7.35633384 -0.1813032 13.36038444 -2.9375 20.0625 C-3.43903885 21.30213141 -3.93968071 22.54212608 -4.43945312 23.7824707 C-5.45584582 26.29994921 -6.47925929 28.8144158 -7.50732422 31.32714844 C-8.90789241 34.7733617 -10.27472925 38.23065557 -11.62890625 41.6953125 C-12.41878327 43.69290119 -13.20912064 45.69030794 -14 47.6875 C-14.36085693 48.61892822 -14.72171387 49.55035645 -15.09350586 50.51000977 C-15.43389893 51.35619873 -15.77429199 52.2023877 -16.125 53.07421875 C-16.41632812 53.81244873 -16.70765625 54.55067871 -17.0078125 55.3112793 C-18 57 -18 57 -21 58 C-20.3386196 52.84123287 -19.09902827 47.7705188 -17 43 C-16.01 42.505 -16.01 42.505 -15 42 C-15 41.34 -15 40.68 -15 40 C-15.99 40 -16.98 40 -18 40 C-17.95875 41.0725 -17.9175 42.145 -17.875 43.25 C-17.9885825 46.65747485 -18.21273364 48.20739631 -20 51 C-21.32 50.67 -22.64 50.34 -24 50 C-23.35614173 44.84760812 -21.80614191 40.38069209 -19.9453125 35.57421875 C-19.64309784 34.78602249 -19.34088318 33.99782623 -19.0295105 33.18574524 C-18.39201208 31.52980373 -17.75142138 29.87504972 -17.10791016 28.22143555 C-16.12319703 25.68285195 -15.15700198 23.13770354 -14.19140625 20.59179688 C-13.56882595 18.98133833 -12.94516574 17.37129676 -12.3203125 15.76171875 C-12.0327005 14.99824631 -11.7450885 14.23477386 -11.44876099 13.44816589 C-10.71769794 11.59617407 -9.86808542 9.79185786 -9 8 C-8.01 7.67 -7.02 7.34 -6 7 C-5.67 6.01 -5.34 5.02 -5 4 C-4.67 5.32 -4.34 6.64 -4 8 C-4.66 8 -5.32 8 -6 8 C-5.67 10.31 -5.34 12.62 -5 15 C-4.67 13.35 -4.34 11.7 -4 10 C-3.34 10 -2.68 10 -2 10 C-1.855625 8.72125 -1.71125 7.4425 -1.5625 6.125 C-1.29357254 3.74307106 -1.07773654 2.15547309 0 0 Z " fill="#101211" transform="translate(636,484)"/>
<path d="M0 0 C12 0 12 0 16 3 C16.75 9.75 16.75 9.75 14.5 13.5 C14.005 13.995 13.51 14.49 13 15 C13.66 16.11375 14.32 17.2275 15 18.375 C17 21.75 17 21.75 17 24 C15.35 24 13.7 24 12 24 C11.74605469 23.43410156 11.49210937 22.86820313 11.23046875 22.28515625 C10.88628906 21.55167969 10.54210937 20.81820312 10.1875 20.0625 C9.85105469 19.33160156 9.51460938 18.60070312 9.16796875 17.84765625 C8.06399866 15.66970511 8.06399866 15.66970511 5 15 C5 17.97 5 20.94 5 24 C3.35 24 1.7 24 0 24 C0 16.08 0 8.16 0 0 Z " fill="#101110" transform="translate(377,570)"/>
<path d="M0 0 C4.06270321 2.0313516 5.81185649 3.75477657 8.75 7.125 C9.94882812 8.49011719 9.94882812 8.49011719 11.171875 9.8828125 C12.07679688 10.93082031 12.07679688 10.93082031 13 12 C13.33 8.04 13.66 4.08 14 0 C15.65 0 17.3 0 19 0 C19 7.92 19 15.84 19 24 C14.30289957 22.82572489 13.68844123 21.7655183 10.875 18 C8.39933745 14.45327277 8.39933745 14.45327277 5 12 C5 15.96 5 19.92 5 24 C3.35 23.67 1.7 23.34 0 23 C0 15.41 0 7.82 0 0 Z " fill="#181818" transform="translate(710,364)"/>
<path d="M0 0 C2.32929648 2.8659339 3.75761681 5.52867471 5.04296875 8.984375 C5.39423828 9.91894531 5.74550781 10.85351562 6.10742188 11.81640625 C6.64206055 13.26853516 6.64206055 13.26853516 7.1875 14.75 C7.55552734 15.73355469 7.92355469 16.71710937 8.30273438 17.73046875 C9.20769361 20.15152853 10.10654348 22.57467685 11 25 C8.625 25.125 8.625 25.125 6 25 C5.34 24.34 4.68 23.68 4 23 C0.5 22.66666667 0.5 22.66666667 -3 23 C-3.66 23.66 -4.32 24.32 -5 25 C-7.625 25.125 -7.625 25.125 -10 25 C-6.89184291 16.55617323 -3.79175794 8.16686326 0 0 Z " fill="#121313" transform="translate(320,569)"/>
<path d="M0 0 C2.32127521 2.32127521 2.98851952 4.17015075 4.1640625 7.2265625 C4.56367188 8.2578125 4.96328125 9.2890625 5.375 10.3515625 C5.99375 11.97191406 5.99375 11.97191406 6.625 13.625 C7.04523438 14.71296875 7.46546875 15.8009375 7.8984375 16.921875 C8.93703873 19.61279637 9.97067 22.30552154 11 25 C8.625 25.125 8.625 25.125 6 25 C5.34 24.34 4.68 23.68 4 23 C0.5 22.66666667 0.5 22.66666667 -3 23 C-3.66 23.66 -4.32 24.32 -5 25 C-7.625 25.125 -7.625 25.125 -10 25 C-6.89184291 16.55617323 -3.79175794 8.16686326 0 0 Z " fill="#141414" transform="translate(416,569)"/>
<path d="M0 0 C2.32127521 2.32127521 2.98851952 4.17015075 4.1640625 7.2265625 C4.56367187 8.2578125 4.96328125 9.2890625 5.375 10.3515625 C5.99375 11.97191406 5.99375 11.97191406 6.625 13.625 C7.04523437 14.71296875 7.46546875 15.8009375 7.8984375 16.921875 C8.93703873 19.61279637 9.97067 22.30552154 11 25 C8.625 25.125 8.625 25.125 6 25 C5.34 24.34 4.68 23.68 4 23 C0.5 22.66666667 0.5 22.66666667 -3 23 C-3.66 23.66 -4.32 24.32 -5 25 C-6.32 25 -7.64 25 -9 25 C-8.36190624 19.51416613 -6.53149832 14.77440444 -4.5 9.6875 C-4.01853516 8.45290039 -4.01853516 8.45290039 -3.52734375 7.19335938 C-1.14318665 1.14318665 -1.14318665 1.14318665 0 0 Z " fill="#101111" transform="translate(576,363)"/>
<path d="M0 0 C2.46301423 2.46301423 2.76766521 4.27360036 3.625 7.625 C4.01558594 9.12933594 4.01558594 9.12933594 4.4140625 10.6640625 C4.60742188 11.43492187 4.80078125 12.20578125 5 13 C0.25265759 15.43122496 -4.17514088 15.30606624 -9.38012695 15.31884766 C-10.78573631 15.33391609 -10.78573631 15.33391609 -12.21974182 15.34928894 C-15.30924887 15.38011701 -18.39866927 15.39715517 -21.48828125 15.4140625 C-23.63348638 15.43277443 -25.77868416 15.45234786 -27.9238739 15.4727478 C-33.5642971 15.52407223 -39.20474416 15.56369641 -44.84527588 15.60089111 C-50.60329086 15.64092871 -56.36120655 15.6920222 -62.11914062 15.7421875 C-73.41269067 15.83895053 -84.70629677 15.92335422 -96 16 C-96.33 15.01 -96.66 14.02 -97 13 C-64.33 13 -31.66 13 2 13 C1.01 10.36 0.02 7.72 -1 5 C-0.6875 2 -0.6875 2 0 0 Z " fill="#030303" transform="translate(501,401)"/>
<path d="M0 0 C1.8871875 0.0309375 1.8871875 0.0309375 3.8125 0.0625 C4.1425 1.7125 4.4725 3.3625 4.8125 5.0625 C3.76449219 5.11857422 3.76449219 5.11857422 2.6953125 5.17578125 C1.78523437 5.24152344 0.87515625 5.30726563 -0.0625 5.375 C-0.96742188 5.43300781 -1.87234375 5.49101562 -2.8046875 5.55078125 C-5.54971601 5.8507039 -5.54971601 5.8507039 -7.1875 9.0625 C-7.6327354 13.19426264 -7.6327354 13.19426264 -6 16.875 C-3.76718261 18.33788036 -1.81405933 18.70755955 0.8125 19.0625 C0.8125 16.7525 0.8125 14.4425 0.8125 12.0625 C2.4625 12.0625 4.1125 12.0625 5.8125 12.0625 C5.89340971 13.68668745 5.95164995 15.31201745 6 16.9375 C6.05220703 18.29488281 6.05220703 18.29488281 6.10546875 19.6796875 C6.00878906 20.46601563 5.91210938 21.25234375 5.8125 22.0625 C2.08670911 24.54636059 0.22538598 24.4429212 -4.1875 24.0625 C-7.90771378 22.37149374 -10.01401656 20.4936733 -12.1875 17.0625 C-12.99157057 13.0019436 -13.11814111 8.84177169 -11.16796875 5.11328125 C-7.8845708 1.01647354 -5.08276158 -0.08332396 0 0 Z " fill="#121212" transform="translate(689.1875,363.9375)"/>
<path d="M0 0 C1.65 0 3.3 0 5 0 C5.33 5.94 5.66 11.88 6 18 C7.98 18 9.96 18 12 18 C12.495 9.09 12.495 9.09 13 0 C14.32 0 15.64 0 17 0 C17.13530844 3.06398451 17.2342407 6.12197126 17.3125 9.1875 C17.35439453 10.05181641 17.39628906 10.91613281 17.43945312 11.80664062 C17.52660387 16.35590966 17.4966782 18.34441805 14.66796875 22.078125 C12 24 12 24 9 24.5625 C5.29137047 23.86713196 3.61766323 22.69245361 1 20 C-0.33342244 15.98785938 -0.11050618 11.93023061 -0.0625 7.75 C-0.05798828 7.00492188 -0.05347656 6.25984375 -0.04882812 5.4921875 C-0.03709246 3.6614236 -0.0191585 1.83070127 0 0 Z " fill="#0B0C0A" transform="translate(344,570)"/>
<path d="M0 0 C2.125 0.375 2.125 0.375 4 1 C3.67 1.99 3.34 2.98 3 4 C2.34 4 1.68 4 1 4 C1 4.66 1 5.32 1 6 C2.09618652 5.83846436 3.19237305 5.67692871 4.32177734 5.51049805 C9.49975595 4.86678197 14.63945094 4.83802343 19.8515625 4.83203125 C20.86922699 4.82870285 21.88689148 4.82537445 22.93539429 4.82194519 C25.07508902 4.81690692 27.21479153 4.8145359 29.35449219 4.81469727 C32.62187563 4.8125021 35.88892576 4.79428966 39.15625 4.77539062 C41.24218635 4.77245776 43.3281243 4.77047225 45.4140625 4.76953125 C46.38606598 4.76234573 47.35806946 4.75516022 48.35952759 4.74775696 C53.31223764 4.76441558 57.35670883 5.04291434 62 7 C62 7.33 62 7.66 62 8 C56.10000621 8.14552596 50.19994438 8.28776064 44.29980469 8.42724609 C42.30238831 8.474895 40.30499134 8.52336646 38.30761719 8.57275391 C24.8686664 8.90432923 11.44303826 9.06642182 -2 9 C-2.125 5.625 -2.125 5.625 -2 2 C-1.34 1.34 -0.68 0.68 0 0 Z " fill="#0A0C0C" transform="translate(331,530)"/>
<path d="M0 0 C11.92618991 -0.06946775 23.85233179 -0.12279494 35.77868271 -0.15543652 C41.31639495 -0.17110173 46.85396891 -0.19235579 52.39160156 -0.22631836 C57.73433036 -0.25888103 63.07692604 -0.27684657 68.4197464 -0.28463173 C70.45953721 -0.29018078 72.49932063 -0.30101654 74.53905487 -0.31719017 C77.39305955 -0.3389232 80.24651201 -0.34196864 83.10058594 -0.34057617 C83.94647278 -0.351362 84.79235962 -0.36214783 85.66387939 -0.3732605 C90.55226672 -0.34740153 91.91311342 -0.06516494 96 3 C63.99 3 31.98 3 -1 3 C-0.67 2.01 -0.34 1.02 0 0 Z " fill="#070A09" transform="translate(512,538)"/>
<path d="M0 0 C0.33 1.32 0.66 2.64 1 4 C-1.49064888 4.68707555 -3.37886292 5 -6 5 C-5.95231597 6.87880872 -5.95231597 6.87880872 -5 9 C-2.05763218 11.21168225 -2.05763218 11.21168225 1 13 C2 14 2 14 2.1875 16.875 C2 20 2 20 0 23 C-3.50147041 24.1671568 -6.32670036 24.13357453 -10 24 C-10.66 23.67 -11.32 23.34 -12 23 C-12 21.35 -12 19.7 -12 18 C-9.03 18 -6.06 18 -3 18 C-3.73971936 14.61916393 -3.73971936 14.61916393 -7.5 13.1875 C-10.41453227 11.61305164 -10.88072729 11.29504301 -12.1875 8.0625 C-12 5 -12 5 -10.5625 2.125 C-6.89875485 -0.91322769 -4.66282643 -0.38856887 0 0 Z " fill="#111211" transform="translate(640,364)"/>
<path d="M0 0 C0.33 1.65 0.66 3.3 1 5 C-1.31 5 -3.62 5 -6 5 C-6 5.99 -6 6.98 -6 8 C-4.25052392 9.25328055 -4.25052392 9.25328055 -2.0625 10.3125 C0.99844359 12.12619078 1.83992369 12.63411129 3.3125 16 C3 19 3 19 1 21.875 C-2.6811954 24.48251341 -4.57686406 24.57336947 -9 24 C-9.99 23.34 -10.98 22.68 -12 22 C-12 20.68 -12 19.36 -12 18 C-8.7 18.33 -5.4 18.66 -2 19 C-2 17.68 -2 16.36 -2 15 C-2.928125 14.731875 -3.85625 14.46375 -4.8125 14.1875 C-9.40883978 12.47513812 -9.40883978 12.47513812 -11 10 C-11.53520313 6.40649325 -11.44814771 4.68118452 -9.4375 1.625 C-6.18317497 -0.54455002 -3.82869586 -0.29451507 0 0 Z " fill="#121313" transform="translate(611,364)"/>
<path d="M0 0 C0.99 0 1.98 0 3 0 C3.33 0.99 3.66 1.98 4 3 C3.34 3 2.68 3 2 3 C2 4.65 2 6.3 2 8 C3.32 6.35 4.64 4.7 6 3 C7.33325889 8.14603302 6.44678877 11.59410477 4.47265625 16.3671875 C4.20488876 17.04677521 3.93712128 17.72636292 3.66123962 18.42654419 C2.80848822 20.58169449 1.9359196 22.72815436 1.0625 24.875 C0.47848774 26.34061657 -0.10420907 27.80675805 -0.68554688 29.2734375 C-2.10854298 32.85521349 -3.54935839 36.42933617 -5 40 C-5.99 40 -6.98 40 -8 40 C-6.97137215 34.55432314 -5.75385216 29.88182883 -3 25 C-3.66 24.67 -4.32 24.34 -5 24 C-4.38125 23.484375 -3.7625 22.96875 -3.125 22.4375 C-0.52523258 19.45541385 0.11949123 16.81553799 1 13 C0.01 13 -0.98 13 -2 13 C-2 14.32 -2 15.64 -2 17 C-2.66 17 -3.32 17 -4 17 C-5.6852084 12.92320841 -4.16939007 10.16924407 -2.5625 6.25 C-2.08941406 5.07953125 -1.61632812 3.9090625 -1.12890625 2.703125 C-0.75636719 1.81109375 -0.38382813 0.9190625 0 0 Z " fill="#0F1111" transform="translate(608,541)"/>
<path d="M0 0 C23.1 0.66 46.2 1.32 70 2 C69.67 2.66 69.34 3.32 69 4 C47.55 4 26.1 4 4 4 C4.99 4.99 5.98 5.98 7 7 C6 8 6 8 2.9375 8.0625 C1.968125 8.041875 0.99875 8.02125 0 8 C0 5.36 0 2.72 0 0 Z " fill="#030405" transform="translate(600,418)"/>
<path d="M0 0 C4.53873786 3.62721063 5.92342048 8.22586854 7.85546875 13.5078125 C8.20257401 14.42964325 8.54967926 15.351474 8.90730286 16.30123901 C10.01096455 19.23876964 11.09954162 22.18162178 12.1875 25.125 C13.28953974 28.07417453 14.39456707 31.02221733 15.49983215 33.97018433 C16.18578592 35.80329426 16.8692 37.63735692 17.54985046 39.47244263 C17.8571962 40.30025238 18.16454193 41.12806213 18.48120117 41.98095703 C18.75115402 42.71057648 19.02110687 43.44019592 19.29924011 44.19192505 C19.99014455 46.0584245 19.99014455 46.0584245 21 48 C21.06950541 49.54023996 21.08452357 51.08334988 21.0625 52.625 C21.05347656 53.44226563 21.04445313 54.25953125 21.03515625 55.1015625 C21.02355469 55.72804688 21.01195312 56.35453125 21 57 C19 56 19 56 18.140625 53.515625 C17.84671875 52.43796875 17.5528125 51.3603125 17.25 50.25 C15.84122587 45.43493617 14.18134629 41.01692918 12 36.5 C9.41106655 31.11397764 7.60178942 25.75879192 5.94140625 20.02734375 C4.41964641 15.13371772 2.28729682 10.57459365 0 6 C-0.039992 4.00039988 -0.04346799 1.99952758 0 0 Z " fill="#151616" transform="translate(522,358)"/>
<path d="M0 0 C1.1055189 0.93590504 2.20935453 1.87379858 3.3125 2.8125 C3.92738281 3.33457031 4.54226563 3.85664063 5.17578125 4.39453125 C5.77777344 4.92433594 6.37976563 5.45414062 7 6 C7.52513184 6.40154297 8.05026367 6.80308594 8.59130859 7.21679688 C10.65261199 9.82611403 10.37214841 11.84556608 10.36328125 15.13671875 C10.36263672 16.35423828 10.36199219 17.57175781 10.36132812 18.82617188 C10.34521484 20.10041016 10.32910156 21.37464844 10.3125 22.6875 C10.31572266 23.94240234 10.31894531 25.19730469 10.32226562 26.49023438 C10.28457752 32.9965711 9.96266371 38.78359503 8 45 C7.34 45 6.68 45 6 45 C6 46.32 6 47.64 6 49 C5.34 49 4.68 49 4 49 C4 50.98 4 52.96 4 55 C3.34 55 2.68 55 2 55 C1.43713415 48.10489328 3.13828449 42.15363456 5.02734375 35.5859375 C7.55269522 26.27560559 8.85454975 16.66883883 4 8 C2.67130142 6.32963607 1.33895632 4.66215268 0 3 C0 2.01 0 1.02 0 0 Z " fill="#0F1110" transform="translate(630,431)"/>
<path d="M0 0 C1.9140625 0.7734375 1.9140625 0.7734375 4 2 C4.75341795 3.98628369 5.48134706 5.98575745 6.08203125 8.0234375 C7.2551372 11.82729593 8.65247743 15.52865962 10.0625 19.25 C10.32015137 19.93529785 10.57780273 20.6205957 10.84326172 21.32666016 C11.8675799 24.04425254 12.90151305 26.75592365 13.98828125 29.44921875 C15.44645916 33.1256287 16.789404 36.84008532 18.125 40.5625 C18.54072266 41.69461914 18.54072266 41.69461914 18.96484375 42.84960938 C19.35736328 43.94692383 19.35736328 43.94692383 19.7578125 45.06640625 C19.9964502 45.72584229 20.23508789 46.38527832 20.48095703 47.06469727 C21 49 21 49 21 53 C20.34 53 19.68 53 19 53 C14.37435265 41.73409672 9.96599388 30.3946015 5.75015259 18.96954346 C5.2503076 17.61554327 4.74882336 16.26214711 4.24569702 14.90936279 C3.53362465 12.99221548 2.82829865 11.07272437 2.125 9.15234375 C1.71507812 8.03851318 1.30515625 6.92468262 0.8828125 5.77709961 C0 3 0 3 0 0 Z " fill="#0E100F" transform="translate(478,344)"/>
<path d="M0 0 C3.9477126 3.3011045 5.38988926 7.00616811 7 11.75 C9.28477462 18.22371642 9.28477462 18.22371642 12.1875 24.4375 C13.87708632 27.75841105 15.03163873 30.8932535 16.140625 34.4296875 C17.57471437 38.71891842 19.31437181 42.89123659 21.01171875 47.08203125 C22 50 22 50 22 54 C19 53 19 53 17.91792297 51.0464325 C17.58705185 50.19023819 17.25618073 49.33404388 16.9152832 48.4519043 C16.53511551 47.48387375 16.15494781 46.5158432 15.76325989 45.51847839 C15.16308296 43.93731987 15.16308296 43.93731987 14.55078125 42.32421875 C14.13330124 41.24751419 13.71582123 40.17080963 13.28569031 39.06147766 C12.40371149 36.779481 11.52730428 34.49532442 10.65600586 32.20922852 C9.32017136 28.70760891 7.96529738 25.21382617 6.60742188 21.72070312 C5.75406498 19.50564848 4.90181451 17.29016719 4.05078125 15.07421875 C3.64459061 14.02618576 3.23839996 12.97815277 2.81990051 11.89836121 C2.4491893 10.92087418 2.07847809 9.94338715 1.6965332 8.9362793 C1.36804886 8.07769821 1.03956451 7.21911713 0.7011261 6.33451843 C0 4 0 4 0 0 Z " fill="#0C0E0D" transform="translate(466,530)"/>
<path d="M0 0 C3.11173483 1.03724494 4.10466125 1.41544715 6 4 C6.09925781 4.93199219 6.19851563 5.86398437 6.30078125 6.82421875 C7.18605612 13.82692365 10.33934035 20.49689084 12.84960938 27.04492188 C15.52440963 34.39096239 17.12534086 41.15233114 16 49 C15.34 49.99 14.68 50.98 14 52 C13.34 52 12.68 52 12 52 C12.05800781 51.175 12.11601563 50.35 12.17578125 49.5 C12.56856431 39.44475367 10.43883632 31.33223395 7 22 C6.69513672 21.17081055 6.39027344 20.34162109 6.07617188 19.48730469 C4.17782272 14.3386634 4.17782272 14.3386634 2.23608398 9.20629883 C1.80017944 8.05810669 1.80017944 8.05810669 1.35546875 6.88671875 C1.09403076 6.20826904 0.83259277 5.52981934 0.56323242 4.83081055 C0 3 0 3 0 0 Z " fill="#0C0E0D" transform="translate(526,472)"/>
<path d="M0 0 C1.18359375 1.69921875 1.18359375 1.69921875 2 4 C0.91015625 6.26953125 0.91015625 6.26953125 -0.9375 8.8125 C-8.66342331 20.2347474 -13.36853094 33.08956794 -18 46 C-18.99 46 -19.98 46 -21 46 C-19.79095334 38.98752937 -17.40972259 32.96257231 -14.53125 26.46484375 C-12.56792009 22.02230899 -10.77120571 17.52178398 -9 13 C-8.34 13 -7.68 13 -7 13 C-7 11.35 -7 9.7 -7 8 C-6.01 7.67 -5.02 7.34 -4 7 C-3.26676204 4.98491642 -3.26676204 4.98491642 -3 3 C-2.34 3 -1.68 3 -1 3 C-0.67 2.01 -0.34 1.02 0 0 Z " fill="#0F1112" transform="translate(659,437)"/>
<path d="M0 0 C0.99 0.33 1.98 0.66 3 1 C4.16796875 3.3984375 4.16796875 3.3984375 5.1875 6.375 C5.53167969 7.35210937 5.87585938 8.32921875 6.23046875 9.3359375 C7 12 7 12 7 15 C7.66 15.33 8.32 15.66 9 16 C9.7109375 17.96875 9.7109375 17.96875 10.375 20.5 C11.36110466 24.00116958 12.47425608 27.26060381 14 30.5625 C16.62729325 36.26170537 19 41.66979616 19 48 C17.515 47.505 17.515 47.505 16 47 C14.84236563 44.50808174 13.87980853 42.10929507 12.96875 39.52734375 C12.55296692 38.3926339 12.55296692 38.3926339 12.12878418 37.23500061 C11.24162023 34.80630655 10.37060738 32.37217204 9.5 29.9375 C8.91382777 28.32317974 8.32660018 26.70924228 7.73828125 25.09570312 C6.39885931 21.41802065 5.06951702 17.73689772 3.75219727 14.05123901 C3.2347341 12.64011897 2.69756682 11.23611894 2.14428711 9.83865356 C0.74680422 6.29558429 0 3.86166734 0 0 Z " fill="#0C0E0D" transform="translate(508,423)"/>
<path d="M0 0 C0.33 0.66 0.66 1.32 1 2 C1.99 2 2.98 2 4 2 C4 1.34 4 0.68 4 0 C4.66 0 5.32 0 6 0 C6.33 1.32 6.66 2.64 7 4 C6.34 4 5.68 4 5 4 C4.7525 5.155 4.505 6.31 4.25 7.5 C3.29614171 11.3563128 1.80573785 14.60371884 -0.046875 18.1015625 C-1.32486392 20.64706503 -2.18293947 23.27646489 -3 26 C-3.33 26 -3.66 26 -4 26 C-4.125 20.25 -4.125 20.25 -3 18 C-3.66 18 -4.32 18 -5 18 C-5.28875 19.134375 -5.5775 20.26875 -5.875 21.4375 C-6.24625 22.613125 -6.6175 23.78875 -7 25 C-7.66 25.33 -8.32 25.66 -9 26 C-6.56696874 17.12157015 -3.29163506 8.58594775 0 0 Z M7 0 C7.99 0 8.98 0 10 0 C9.34 1.32 8.68 2.64 8 4 C7.67 2.68 7.34 1.36 7 0 Z " fill="#1B1D1C" transform="translate(426,330)"/>
<path d="M0 0 C2.16753771 5.71031726 -1.53398932 11.32587854 -3.6875 16.625 C-4.13544922 17.78257812 -4.58339844 18.94015625 -5.04492188 20.1328125 C-5.48771484 21.23625 -5.93050781 22.3396875 -6.38671875 23.4765625 C-6.79108154 24.48799316 -7.19544434 25.49942383 -7.61206055 26.54150391 C-9.13658429 29.24193559 -10.12438722 29.97482474 -13 31 C-13.33 30.34 -13.66 29.68 -14 29 C-13.34 29 -12.68 29 -12 29 C-12 28.34 -12 27.68 -12 27 C-12.99 27 -13.98 27 -15 27 C-15.625 25.125 -15.625 25.125 -16 23 C-15.34 22.34 -14.68 21.68 -14 21 C-13.28591666 19.01643517 -12.61382258 17.01684563 -12 15 C-11.34 15 -10.68 15 -10 15 C-10 16.98 -10 18.96 -10 21 C-9.7525 20.175 -9.505 19.35 -9.25 18.5 C-8.03321672 15.09300681 -6.54320747 12.08947927 -4.8046875 8.9296875 C-3.74341287 6.73314666 -3.74341287 6.73314666 -4 3 C-3.34 3 -2.68 3 -2 3 C-2 2.34 -2 1.68 -2 1 C-1.34 0.67 -0.68 0.34 0 0 Z " fill="#0E0F0F" transform="translate(433,333)"/>
<path d="M0 0 C0.33 0.66 0.66 1.32 1 2 C3.02463255 2.65213292 3.02463255 2.65213292 5 3 C4.51509424 7.72783111 3.02897673 11.43227183 1.05078125 15.68359375 C0.04119801 17.9091806 -0.842864 20.14491656 -1.6875 22.4375 C-3 26 -3 26 -4 28 C-4.66 28 -5.32 28 -6 28 C-5.45660208 23.43545749 -4.20536179 20.0271824 -2 16 C-2.66 16 -3.32 16 -4 16 C-4.66 18.31 -5.32 20.62 -6 23 C-6.66 23 -7.32 23 -8 23 C-5.47191206 15.28267891 -2.74972528 7.64054098 0 0 Z " fill="#171A18" transform="translate(440,294)"/>
<path d="M0 0 C2.69595897 1.34797948 2.77914135 2.5739391 3.8046875 5.375 C4.14113281 6.27863281 4.47757813 7.18226563 4.82421875 8.11328125 C5.17097656 9.06589844 5.51773438 10.01851562 5.875 11 C8.11939577 17.10168431 10.41128721 23.12078718 13.14794922 29.02124023 C14.40902582 31.94990093 15.211954 34.9134865 16 38 C14.68 38 13.36 38 12 38 C11.78384033 37.43192627 11.56768066 36.86385254 11.3449707 36.27856445 C10.69955874 34.58266523 10.05386327 32.88687389 9.40795898 31.19116211 C8.67562275 29.26671894 7.94467298 27.34174762 7.21508789 25.41625977 C5.61969753 21.21261725 4.02156571 17.01366905 2.3203125 12.8515625 C1.86398437 11.72492187 1.40765625 10.59828125 0.9375 9.4375 C0.53402344 8.46683594 0.13054688 7.49617187 -0.28515625 6.49609375 C-1.0475512 3.83396057 -0.95792699 2.56049667 0 0 Z " fill="#0D100F" transform="translate(514,651)"/>
<path d="M0 0 C3 1 3 1 4.27441406 3.38916016 C5.61653362 6.79514491 6.9488701 10.20310189 8.25 13.625 C8.72179687 14.80191406 9.19359375 15.97882813 9.6796875 17.19140625 C10.12054687 18.33738281 10.56140625 19.48335938 11.015625 20.6640625 C11.42071289 21.71029785 11.82580078 22.7565332 12.24316406 23.83447266 C13.12882117 27.53880493 12.7453335 30.29257821 12 34 C9.36132864 31.36132864 8.70436541 28.41418835 7.625 24.9375 C6.21505126 20.51591337 4.76497498 16.25423627 2.75 12.0625 C0.84784056 8.02808119 0.32271735 4.4373636 0 0 Z " fill="#131415" transform="translate(552,436)"/>
<path d="M0 0 C2.97 0 5.94 0 9 0 C9 2.64 9 5.28 9 8 C3.88689982 8.08970351 -0.96109772 8.0283474 -6 7 C-6.33 6.34 -6.66 5.68 -7 5 C-6.0625 2.875 -6.0625 2.875 -5 1 C-3.35 1.33 -1.7 1.66 0 2 C0 1.34 0 0.68 0 0 Z " fill="#070808" transform="translate(403,532)"/>
<path d="M0 0 C0.66 0.33 1.32 0.66 2 1 C1.36180842 4.54834519 0.48725713 7.86275507 -0.75 11.25 C-1.20632813 12.55710937 -1.20632813 12.55710937 -1.671875 13.890625 C-3 16 -3 16 -5.640625 16.796875 C-6.41921875 16.86390625 -7.1978125 16.9309375 -8 17 C-8 18.65 -8 20.3 -8 22 C-8.99 22 -9.98 22 -11 22 C-11.33 22.99 -11.66 23.98 -12 25 C-13 23 -13 23 -12.47094727 21.12060547 C-12.17244873 20.37697754 -11.8739502 19.63334961 -11.56640625 18.8671875 C-11.24736328 18.06152344 -10.92832031 17.25585938 -10.59960938 16.42578125 C-10.25736328 15.58402344 -9.91511719 14.74226562 -9.5625 13.875 C-9.22412109 13.02550781 -8.88574219 12.17601562 -8.53710938 11.30078125 C-7.69823043 9.19767629 -6.85228875 7.09769845 -6 5 C-4.68 5.33 -3.36 5.66 -2 6 C-1.34 4.02 -0.68 2.04 0 0 Z " fill="#1A1C1B" transform="translate(628,500)"/>
<path d="M0 0 C0.66 0 1.32 0 2 0 C1.24781341 6.51895044 1.24781341 6.51895044 -0.0625 9.0625 C-1.3589057 11.74173845 -1.13326354 14.06820212 -1 17 C-1.66 17 -2.32 17 -3 17 C-3.33773438 17.99902344 -3.67546875 18.99804688 -4.0234375 20.02734375 C-4.47357336 21.33086217 -4.92411525 22.63424043 -5.375 23.9375 C-5.59671875 24.59685547 -5.8184375 25.25621094 -6.046875 25.93554688 C-7.7734375 30.88671875 -7.7734375 30.88671875 -10 32 C-10.40196264 21.0465181 -5.56659481 10.74153295 -1 1 C-0.67 0.67 -0.34 0.34 0 0 Z " fill="#141615" transform="translate(460,245)"/>
<path d="M0 0 C0.33 0 0.66 0 1 0 C0.94749549 13.80868489 -6.32830549 21.86375263 -15 32 C-15 27.06577427 -13.87493431 24.58203356 -10.875 20.6875 C-6.22636887 14.26796177 -3.1692091 7.22464081 0 0 Z " fill="#171919" transform="translate(363,493)"/>
<path d="M0 0 C3.58847107 1.79423554 4.49419728 6.48808971 5.71875 10.1484375 C6.20437649 11.65282391 6.68738369 13.15805799 7.16796875 14.6640625 C8.04268598 17.1198414 9.11594307 19.40394409 10.25 21.75 C11.60274565 24.67582487 12.01892613 25.76815495 11.75 29.0625 C11.37875 30.0215625 11.37875 30.0215625 11 31 C6.66642213 27.23580871 5.2826708 21.84453952 3.25 16.625 C2.82589844 15.5834375 2.40179688 14.541875 1.96484375 13.46875 C1.37123047 11.95667969 1.37123047 11.95667969 0.765625 10.4140625 C0.40243164 9.4957666 0.03923828 8.5774707 -0.33496094 7.63134766 C-1.07739639 4.69376713 -0.81557506 2.88844062 0 0 Z " fill="#0F1010" transform="translate(447,478)"/>
<path d="M0 0 C1.32 0 2.64 0 4 0 C4 7.92 4 15.84 4 24 C2.68 24 1.36 24 0 24 C0 16.08 0 8.16 0 0 Z " fill="#070807" transform="translate(657,364)"/>
<path d="M0 0 C4.75390166 4.29937014 6.21033 9.01529897 8.3125 14.9375 C8.8703418 16.4215332 8.8703418 16.4215332 9.43945312 17.93554688 C9.78556641 18.89396484 10.13167969 19.85238281 10.48828125 20.83984375 C10.80321533 21.70988037 11.11814941 22.57991699 11.44262695 23.47631836 C12.07201934 26.32609022 11.76228688 28.20786996 11 31 C8.11556597 29.55778299 7.82721669 27.3632802 6.78515625 24.45703125 C5.92425178 21.76295707 5.20769053 19.05063248 4.5 16.3125 C3.68538651 13.18334976 2.98715981 10.97859968 1.3125 8.1875 C-0.38887098 5.3518817 -0.22642928 3.24548641 0 0 Z " fill="#131416" transform="translate(542,630)"/>
<path d="M0 0 C0.33 0 0.66 0 1 0 C1 1.65 1 3.3 1 5 C0.34 5 -0.32 5 -1 5 C-0.67 7.31 -0.34 9.62 0 12 C0.99 11.67 1.98 11.34 3 11 C1.83805848 17.46712188 -0.1248748 23.09622349 -3 29 C-3.66 28.67 -4.32 28.34 -5 28 C-4.85820312 27.44699219 -4.71640625 26.89398438 -4.5703125 26.32421875 C-3.95790424 23.82844536 -3.40253901 21.32759797 -2.875 18.8125 C-2.68679688 17.93207031 -2.49859375 17.05164063 -2.3046875 16.14453125 C-2.20414062 15.43683594 -2.10359375 14.72914063 -2 14 C-2.33 13.67 -2.66 13.34 -3 13 C-3.66 13.66 -4.32 14.32 -5 15 C-5.31549831 9.74169479 -4.73345236 6.52070968 -2 2 C-1.34 1.34 -0.68 0.68 0 0 Z " fill="#0D0F10" transform="translate(407,385)"/>
<path d="M0 0 C3.65256721 3.30834958 4.93004768 7.11212661 6.6875 11.625 C7.16799805 12.77935547 7.16799805 12.77935547 7.65820312 13.95703125 C9.85162237 19.54113057 10.31690394 24.0087217 10 30 C7.83353103 26.75029655 6.47411051 23.42574546 5.0625 19.8125 C4.79816162 19.13920654 4.53382324 18.46591309 4.26147461 17.7722168 C3.74069281 16.44371797 3.22120241 15.11471205 2.703125 13.78515625 C2.12139275 12.3082027 1.51678428 10.84028226 0.90625 9.375 C-0.57356993 5.75766239 -1.17655132 3.7243935 0 0 Z " fill="#141515" transform="translate(483,256)"/>
<path d="M0 0 C2.15213059 2.68051158 3.60309886 5.11347064 4.7890625 8.3359375 C5.09070313 9.15320313 5.39234375 9.97046875 5.703125 10.8125 C6.00734375 11.658125 6.3115625 12.50375 6.625 13.375 C7.09292969 14.63183594 7.09292969 14.63183594 7.5703125 15.9140625 C9.15730851 20.26462052 10.44257715 24.37489689 11 29 C8 28 8 28 6.81738281 25.85449219 C5.61481561 22.8243601 4.41684903 19.79411403 3.25 16.75 C2.82589844 15.69941406 2.40179688 14.64882813 1.96484375 13.56640625 C1.37123047 12.04080078 1.37123047 12.04080078 0.765625 10.484375 C0.40243164 9.55334961 0.03923828 8.62232422 -0.33496094 7.66308594 C-1.07232139 4.71039586 -0.82076573 2.9009144 0 0 Z " fill="#0E110F" transform="translate(498,609)"/>
<path d="M0 0 C0.66 0.66 1.32 1.32 2 2 C1.71645487 7.7989552 -0.87457334 13.07711887 -3.0625 18.375 C-3.43955078 19.30183594 -3.81660156 20.22867188 -4.20507812 21.18359375 C-5.13126396 23.45802479 -6.06302668 25.72999667 -7 28 C-7.99 27.67 -8.98 27.34 -10 27 C-8.27172783 20.6933226 -6.16302164 14.55894941 -3.875 8.4375 C-3.60929199 7.72271484 -3.34358398 7.00792969 -3.06982422 6.27148438 C-1.12600343 1.12600343 -1.12600343 1.12600343 0 0 Z " fill="#111213" transform="translate(561,679)"/>
<path d="M0 0 C0.99 0 1.98 0 3 0 C2.25966166 4.6431096 0.70574902 8.86800262 -0.9375 13.25 C-1.20240234 13.9821875 -1.46730469 14.714375 -1.74023438 15.46875 C-3.75930208 20.87965104 -3.75930208 20.87965104 -6 22 C-6.98120464 18.94736336 -6.98120464 17.05263664 -6 14 C-7.32 14 -8.64 14 -10 14 C-9.75 12.125 -9.75 12.125 -9 10 C-6.9375 8.75 -6.9375 8.75 -5 8 C-4.67 8.66 -4.34 9.32 -4 10 C-2.68 6.7 -1.36 3.4 0 0 Z " fill="#0E0F0F" transform="translate(569,658)"/>
<path d="M0 0 C1.1055189 0.93590504 2.20935453 1.87379858 3.3125 2.8125 C3.92738281 3.33457031 4.54226563 3.85664063 5.17578125 4.39453125 C5.77777344 4.92433594 6.37976563 5.45414062 7 6 C7.78987305 6.62068359 7.78987305 6.62068359 8.59570312 7.25390625 C10.57400498 9.71371411 10.34257937 11.41749965 10.29296875 14.54296875 C10.28330078 15.61611328 10.27363281 16.68925781 10.26367188 17.79492188 C10.23853516 18.91447266 10.21339844 20.03402344 10.1875 21.1875 C10.17396484 22.31865234 10.16042969 23.44980469 10.14648438 24.61523438 C10.11109958 27.41063317 10.06172948 30.20507892 10 33 C9.67 33 9.34 33 9 33 C8.89042969 31.78183594 8.78085937 30.56367188 8.66796875 29.30859375 C8.50840885 27.68483712 8.34821907 26.0611423 8.1875 24.4375 C8.11724609 23.63763672 8.04699219 22.83777344 7.97460938 22.01367188 C7.1785308 14.21210184 4.96164459 9.15928294 0 3 C0 2.01 0 1.02 0 0 Z " fill="#090B0C" transform="translate(630,431)"/>
<path d="M0 0 C2.3732694 2.94588963 3.9745361 5.8557597 5.5 9.3125 C5.92667969 10.27800781 6.35335938 11.24351562 6.79296875 12.23828125 C7.19128906 13.14964844 7.58960938 14.06101562 8 15 C8.32613281 15.71542969 8.65226562 16.43085938 8.98828125 17.16796875 C10.25230656 19.97757952 11 21.87847479 11 25 C9.13598633 24.77075195 9.13598633 24.77075195 7 24 C5.7956543 22.11401367 5.7956543 22.11401367 4.82421875 19.66796875 C4.29538086 18.34635742 4.29538086 18.34635742 3.75585938 16.99804688 C3.40330078 16.07056641 3.05074219 15.14308594 2.6875 14.1875 C2.1296582 12.81368164 2.1296582 12.81368164 1.56054688 11.41210938 C-1.36844894 3.92326161 -1.36844894 3.92326161 0 0 Z " fill="#0D0F0E" transform="translate(435,448)"/>
<path d="M0 0 C0 2.64 0 5.28 0 8 C-3.72965139 10.03435531 -5.66905042 11 -10 11 C-10 10.34 -10 9.68 -10 9 C-8.68 8.67 -7.36 8.34 -6 8 C-6 7.34 -6 6.68 -6 6 C-5.34 5.67 -4.68 5.34 -4 5 C-6.64 4.67 -9.28 4.34 -12 4 C-10 1 -10 1 -7.6875 0.3125 C-5.09355691 0.01087871 -2.60858859 -0.0745311 0 0 Z " fill="#0B0D0C" transform="translate(682,418)"/>
<path d="M0 0 C3.12462419 1.03929185 3.95150639 1.91392088 5.59765625 4.8359375 C6.08105469 6.00382812 6.56445312 7.17171875 7.0625 8.375 C7.31854004 8.99262207 7.57458008 9.61024414 7.83837891 10.24658203 C10.15615718 16.01668441 11.72955791 21.91525105 13 28 C10 27 10 27 8.95678711 25.05395508 C8.49671265 23.79941528 8.49671265 23.79941528 8.02734375 22.51953125 C7.68509766 21.60236328 7.34285156 20.68519531 6.99023438 19.74023438 C6.46913086 18.29100586 6.46913086 18.29100586 5.9375 16.8125 C5.58623047 15.86568359 5.23496094 14.91886719 4.87304688 13.94335938 C3.16698054 9.3218224 1.52017103 4.68653762 0 0 Z " fill="#090C0B" transform="translate(454,283)"/>
<path d="M0 0 C1.79296875 0.51953125 1.79296875 0.51953125 4 2 C5.30430026 4.58808344 6.33884994 6.98128969 7.3125 9.6875 C7.58900391 10.38294922 7.86550781 11.07839844 8.15039062 11.79492188 C9.95357258 16.65942532 10.13507297 19.93531767 9 25 C7 21.25 7 21.25 7 19 C6.34 19 5.68 19 5 19 C4.731875 17.845 4.46375 16.69 4.1875 15.5 C3.43822558 12.46516906 2.51428529 9.59780696 1.375 6.6875 C0 3 0 3 0 0 Z " fill="#141616" transform="translate(525,587)"/>
<path d="M0 0 C0.99 0 1.98 0 3 0 C1.97137215 5.44567686 0.75385216 10.11817117 -2 15 C-4.31 15 -6.62 15 -9 15 C-9.33 13.35 -9.66 11.7 -10 10 C-7.525 10.495 -7.525 10.495 -5 11 C-3.35 7.37 -1.7 3.74 0 0 Z " fill="#111212" transform="translate(549,709)"/>
<path d="M0 0 C1.796875 0.5078125 1.796875 0.5078125 4 2 C5.26835224 4.64724894 6.29443404 7.12043486 7.25 9.875 C7.518125 10.59558594 7.78625 11.31617188 8.0625 12.05859375 C9.33571443 15.5859174 10 18.21341045 10 22 C7 21 7 21 6.0168457 19.3894043 C5.6005188 18.36713745 5.6005188 18.36713745 5.17578125 17.32421875 C4.86962891 16.57849609 4.56347656 15.83277344 4.24804688 15.06445312 C3.93931641 14.28005859 3.63058594 13.49566406 3.3125 12.6875 C2.99216797 11.91470703 2.67183594 11.14191406 2.34179688 10.34570312 C0.80770408 6.5415455 0 4.20042617 0 0 Z " fill="#111313" transform="translate(496,510)"/>
<path d="M0 0 C0.33 1.32 0.66 2.64 1 4 C2.32 4 3.64 4 5 4 C4.34426494 7.47227325 3.54335352 10.85512876 2.5625 14.25 C2.31628906 15.12140625 2.07007813 15.9928125 1.81640625 16.890625 C1 19 1 19 -1 20 C-1.66 19.67 -2.32 19.34 -3 19 C-2.67 17.865625 -2.34 16.73125 -2 15.5625 C-0.95495727 12.45623361 -0.95495727 12.45623361 -1 11 C-1.66 12.32 -2.32 13.64 -3 15 C-3.66 15 -4.32 15 -5 15 C-1.92482916 4.44191344 -1.92482916 4.44191344 0 0 Z " fill="#1A1C1A" transform="translate(377,457)"/>
<path d="M0 0 C1.31223496 3.93670488 0.24296256 6.12488144 -1 10 C-0.34 10.33 0.32 10.66 1 11 C1.1546875 9.8553125 1.1546875 9.8553125 1.3125 8.6875 C2.04364039 5.82940576 2.76951913 4.84257115 5 3 C4.46148032 8.27749285 3.22656164 12.25645564 1 17 C-1 15.6875 -1 15.6875 -3 13 C-3.51991965 9.2948884 -3.65032316 5.69102332 -3 2 C-2.01 1.34 -1.02 0.68 0 0 Z " fill="#0E100F" transform="translate(595,581)"/>
<path d="M0 0 C0.66 0 1.32 0 2 0 C10 15.42857143 10 15.42857143 10 22 C7 21 7 21 6.0168457 19.28173828 C5.73929443 18.55196777 5.46174316 17.82219727 5.17578125 17.0703125 C4.86962891 16.27496094 4.56347656 15.47960937 4.24804688 14.66015625 C3.93931641 13.82355469 3.63058594 12.98695313 3.3125 12.125 C2.83200195 10.88169922 2.83200195 10.88169922 2.34179688 9.61328125 C0 3.43173641 0 3.43173641 0 0 Z " fill="#0B0E0C" transform="translate(487,585)"/>
<path d="M0 0 C1.796875 0.5234375 1.796875 0.5234375 4 2 C5.25411811 4.56001173 6.28696704 6.96191906 7.25 9.625 C7.518125 10.33140625 7.78625 11.0378125 8.0625 11.765625 C8.72091039 13.5057096 9.36214454 15.25227603 10 17 C9.34 17.66 8.68 18.32 8 19 C8 18.34 8 17.68 8 17 C7.34 17 6.68 17 6 17 C2.91099799 11.33492989 0.42335385 6.49142565 0 0 Z " fill="#121514" transform="translate(575,497)"/>
<path d="M0 0 C0.99 0 1.98 0 3 0 C4.00816056 2.58041096 5.0067111 5.16386944 6 7.75 C6.42925781 8.84441406 6.42925781 8.84441406 6.8671875 9.9609375 C7.13789063 10.66992188 7.40859375 11.37890625 7.6875 12.109375 C7.93886719 12.75874023 8.19023437 13.40810547 8.44921875 14.07714844 C9 16 9 16 9 20 C8.01 19.67 7.02 19.34 6 19 C4.79135063 16.37096707 3.76978343 13.84321221 2.8125 11.125 C2.40354492 10.02478516 2.40354492 10.02478516 1.98632812 8.90234375 C0.86711954 5.82241637 0 3.30081542 0 0 Z " fill="#080A09" transform="translate(470,323)"/>
<path d="M0 0 C0.66 0 1.32 0 2 0 C2.84161854 2.08000011 3.67300763 4.16414146 4.5 6.25 C4.9640625 7.41015625 5.428125 8.5703125 5.90625 9.765625 C7 13 7 13 7 17 C4 16 4 16 2.6484375 13.56640625 C2.01808594 12.07947266 2.01808594 12.07947266 1.375 10.5625 C0.94960938 9.57378906 0.52421875 8.58507812 0.0859375 7.56640625 C-0.27242187 6.71949219 -0.63078125 5.87257813 -1 5 C-1.33 4.34 -1.66 3.68 -2 3 C-1.34 2.01 -0.68 1.02 0 0 Z " fill="#151818" transform="translate(567,473)"/>
<path d="M0 0 C0.33 0 0.66 0 1 0 C1.22537111 3.12401779 1.42738648 6.24911333 1.625 9.375 C1.68945312 10.26445312 1.75390625 11.15390625 1.8203125 12.0703125 C1.871875 12.92109375 1.9234375 13.771875 1.9765625 14.6484375 C2.02893066 15.43395996 2.08129883 16.21948242 2.13525391 17.02880859 C2 19 2 19 0 21 C-2.58640236 14.81893674 -3.76112687 9.5942946 -2 3 C-1.34 2.01 -0.68 1.02 0 0 Z " fill="#0B0B0D" transform="translate(373,496)"/>
<path d="M0 0 C1.82421875 0.1015625 1.82421875 0.1015625 4 1 C5.51953125 3.8359375 5.51953125 3.8359375 6.8125 7.375 C7.25207031 8.53773438 7.69164062 9.70046875 8.14453125 10.8984375 C9 14 9 14 8 17 C7.01 17 6.02 17 5 17 C4.731875 15.865625 4.46375 14.73125 4.1875 13.5625 C3.04150728 8.95379545 1.55693355 4.48396861 0 0 Z " fill="#141716" transform="translate(511,333)"/>
<path d="M0 0 C2.31 0 4.62 0 7 0 C10.57142857 7.28571429 10.57142857 7.28571429 9 12 C6.23776722 9.23776722 6.42143709 6.79293383 6 3 C4.01508358 3.26676204 4.01508358 3.26676204 2 4 C1.67 4.99 1.34 5.98 1 7 C0.34 6.34 -0.32 5.68 -1 5 C-0.625 2.375 -0.625 2.375 0 0 Z " fill="#0F1010" transform="translate(466,228)"/>
<path d="M0 0 C0.5625 1.9375 0.5625 1.9375 1 4 C0.67 4.33 0.34 4.66 0 5 C-0.53436584 7.21380133 -0.96284612 9.44136053 -1.40234375 11.67578125 C-2.00057484 14.0022355 -2.85062657 15.89842599 -4 18 C-4.66 18 -5.32 18 -6 18 C-7.29522558 14.41322148 -6.70762204 12.46449298 -5.25 9 C-4.73179687 7.7315625 -4.73179687 7.7315625 -4.203125 6.4375 C-3.02031223 4.04115206 -1.6728256 2.07661109 0 0 Z " fill="#0F110F" transform="translate(587,600)"/>
<path d="M0 0 C1.65 0.33 3.3 0.66 5 1 C4.48780397 4.7561042 3.81899715 7.6830052 2 11 C1.67 11.886875 1.34 12.77375 1 13.6875 C0 16 0 16 -2 17 C-0.125 9.25 -0.125 9.25 1 7 C0.01 7 -0.98 7 -2 7 C-1.34 4.69 -0.68 2.38 0 0 Z " fill="#181B18" transform="translate(575,627)"/>
<path d="M0 0 C3.60654039 2.40436026 3.85452932 3.94679607 5 8 C5.66 8 6.32 8 7 8 C9 11 9 11 8.75 13.125 C8 15 8 15 6 16 C5.01780373 14.23084525 4.03934641 12.45961431 3.0625 10.6875 C2.51722656 9.70136719 1.97195313 8.71523438 1.41015625 7.69921875 C0 5 0 5 -1 2 C-0.67 1.34 -0.34 0.68 0 0 Z " fill="#141615" transform="translate(427,434)"/>
<path d="M0 0 C-0.33 0.66 -0.66 1.32 -1 2 C-3.546875 2.6328125 -3.546875 2.6328125 -6.75 3.125 C-7.79671875 3.29257812 -8.8434375 3.46015625 -9.921875 3.6328125 C-12.6561577 3.95898328 -15.25107058 4.07126854 -18 4 C-18 3.01 -18 2.02 -18 1 C-15.75152519 0.63627613 -13.50113812 0.28435904 -11.25 -0.0625 C-9.99703125 -0.25972656 -8.7440625 -0.45695312 -7.453125 -0.66015625 C-4.49983411 -0.95080818 -2.7397586 -0.98935727 0 0 Z " fill="#090B0B" transform="translate(507,424)"/>
<path d="M0 0 C2.125 0.375 2.125 0.375 4 1 C3.67 1.99 3.34 2.98 3 4 C2.34 4 1.68 4 1 4 C1 4.66 1 5.32 1 6 C2.98 6 4.96 6 7 6 C7 6.99 7 7.98 7 9 C4.03 9 1.06 9 -2 9 C-2.125 5.625 -2.125 5.625 -2 2 C-1.34 1.34 -0.68 0.68 0 0 Z " fill="#0E100F" transform="translate(331,530)"/>
<path d="M0 0 C0.66 0.33 1.32 0.66 2 1 C1.04864681 3.79422603 0.08930407 6.58524589 -0.875 9.375 C-1.14441406 10.1690625 -1.41382813 10.963125 -1.69140625 11.78125 C-1.95566406 12.54179688 -2.21992187 13.30234375 -2.4921875 14.0859375 C-2.73308105 14.7876709 -2.97397461 15.4894043 -3.22216797 16.21240234 C-4 18 -4 18 -6 20 C-6.33 19.01 -6.66 18.02 -7 17 C-7.99 17.33 -8.98 17.66 -10 18 C-8.96994757 15.59654432 -8.11988159 14.10389738 -6.125 12.375 C-2.91196865 8.78396496 -1.61182805 4.492542 0 0 Z " fill="#1C1E1C" transform="translate(570,650)"/>
<path d="M0 0 C0.66 0 1.32 0 2 0 C1 4 1 4 0 8 C0.66 8 1.32 8 2 8 C2.33 7.34 2.66 6.68 3 6 C3.6875 7.8125 3.6875 7.8125 4 10 C2.875 11.8125 2.875 11.8125 1 13 C-1.6875 12.6875 -1.6875 12.6875 -4 12 C-2.66666667 8 -1.33333333 4 0 0 Z " fill="#1B1D1B" transform="translate(382,444)"/>
<path d="M0 0 C3 1 3 1 4.16796875 3.14453125 C4.50441406 4.02496094 4.84085938 4.90539062 5.1875 5.8125 C5.53167969 6.68519531 5.87585938 7.55789063 6.23046875 8.45703125 C7 11 7 11 7 15 C4 14 4 14 2.83203125 11.85546875 C2.49558594 10.97503906 2.15914062 10.09460938 1.8125 9.1875 C1.46832031 8.31480469 1.12414062 7.44210937 0.76953125 6.54296875 C0 4 0 4 0 0 Z " fill="#0C0E0E" transform="translate(528,690)"/>
<path d="M0 0 C-3.14718888 3.2682346 -6.49352499 6.1310659 -10 9 C-10.66 8.67 -11.32 8.34 -12 8 C-11.42655063 5.13275314 -11.1385485 4.1385485 -9 2 C-8.01 2 -7.02 2 -6 2 C-6 1.34 -6 0.68 -6 0 C-2.25 -1.125 -2.25 -1.125 0 0 Z " fill="#101110" transform="translate(486,428)"/>
<path d="M0 0 C0.99 0 1.98 0 3 0 C2.56179109 4.55737263 2.14958831 7.57653445 -1 11 C-1.66 10.67 -2.32 10.34 -3 10 C-3 8.68 -3 7.36 -3 6 C-3.99 6.495 -3.99 6.495 -5 7 C-4.67 5.35 -4.34 3.7 -4 2 C-3.34 2 -2.68 2 -2 2 C-2 2.66 -2 3.32 -2 4 C-1.34 4 -0.68 4 0 4 C0 2.68 0 1.36 0 0 Z " fill="#191C1B" transform="translate(606,554)"/>
<path d="M0 0 C1.98 0 3.96 0 6 0 C6 0.99 6 1.98 6 3 C5.01 3.495 5.01 3.495 4 4 C4.99 4.99 5.98 5.98 7 7 C6 8 6 8 2.9375 8.0625 C1.968125 8.041875 0.99875 8.02125 0 8 C0 5.36 0 2.72 0 0 Z " fill="#0C0E0C" transform="translate(600,418)"/>
<path d="M0 0 C1.99609375 0.05078125 1.99609375 0.05078125 4.4375 0.3125 C5.64212891 0.43044922 5.64212891 0.43044922 6.87109375 0.55078125 C9 1 9 1 11 3 C9.35 3.33 7.7 3.66 6 4 C6 4.66 6 5.32 6 6 C3.03 6 0.06 6 -3 6 C-3 5.67 -3 5.34 -3 5 C-1.35 4.67 0.3 4.34 2 4 C1.01 3.01 0.02 2.02 -1 1 C-0.67 0.67 -0.34 0.34 0 0 Z " fill="#1B1C1A" transform="translate(604,421)"/>
<path d="M0 0 C0.33 0.66 0.66 1.32 1 2 C1.99 2 2.98 2 4 2 C4 1.34 4 0.68 4 0 C4.66 0 5.32 0 6 0 C6.33 1.32 6.66 2.64 7 4 C6.34 4 5.68 4 5 4 C4.67 5.65 4.34 7.3 4 9 C3.34 9 2.68 9 2 9 C1.67 7.68 1.34 6.36 1 5 C0.34 5 -0.32 5 -1 5 C-0.67 3.35 -0.34 1.7 0 0 Z M7 0 C7.99 0 8.98 0 10 0 C9.34 1.32 8.68 2.64 8 4 C7.67 2.68 7.34 1.36 7 0 Z " fill="#1E201F" transform="translate(426,330)"/>
<path d="M0 0 C0.66 0 1.32 0 2 0 C2.70133599 1.57725347 3.385583 3.16211333 4.0625 4.75 C4.44535156 5.63171875 4.82820313 6.5134375 5.22265625 7.421875 C6.04600008 10.15256309 5.9773992 11.36901347 5 14 C4.18071114 12.75443908 3.36984814 11.50333365 2.5625 10.25 C2.11003906 9.55390625 1.65757812 8.8578125 1.19140625 8.140625 C0.02331258 6.04188621 -0.64650003 4.36994344 -1 2 C-0.67 1.34 -0.34 0.68 0 0 Z " fill="#141415" transform="translate(506,316)"/>
<path d="M0 0 C0.99 0.33 1.98 0.66 3 1 C1.27933894 6.44876003 -0.84705349 11.71169451 -3 17 C-3.33 17 -3.66 17 -4 17 C-4.49119563 11.9243118 -2.69441003 7.6881604 -1 3 C-0.67 2.01 -0.34 1.02 0 0 Z " fill="#191C1A" transform="translate(602,565)"/>
<path d="M0 0 C0 0.99 0 1.98 0 3 C-3.96 3.99 -7.92 4.98 -12 6 C-12.33 5.01 -12.66 4.02 -13 3 C-11.39743892 2.49487756 -9.79288208 1.99608373 -8.1875 1.5 C-7.29417969 1.2215625 -6.40085937 0.943125 -5.48046875 0.65625 C-3 0 -3 0 0 0 Z " fill="#0B0E0E" transform="translate(534,527)"/>
<path d="M0 0 C3 0 3 0 5.5 2.375 C6.325 3.24125 7.15 4.1075 8 5 C8.99 5.66 9.98 6.32 11 7 C11 7.66 11 8.32 11 9 C6.98577764 8.38242733 4.17090547 6.46625981 1 4 C0.125 1.75 0.125 1.75 0 0 Z " fill="#0E1011" transform="translate(376,520)"/>
<path d="M0 0 C0.99 0.33 1.98 0.66 3 1 C3.94921875 3.28515625 3.94921875 3.28515625 4.6875 6.0625 C4.93886719 6.98160156 5.19023437 7.90070313 5.44921875 8.84765625 C5.63097656 9.55792969 5.81273437 10.26820313 6 11 C5.34 11 4.68 11 4 11 C3.67 11.66 3.34 12.32 3 13 C2.49242138 11.58603098 1.99425075 10.16868271 1.5 8.75 C1.08234375 7.56664062 1.08234375 7.56664062 0.65625 6.359375 C0 4 0 4 0 0 Z " fill="#111314" transform="translate(478,460)"/>
<path d="M0 0 C3.5718623 3.5718623 4 8.10186234 4 13 C1 12 1 12 -0.01953125 10.0390625 C-0.28121094 9.24242187 -0.54289063 8.44578125 -0.8125 7.625 C-1.08707031 6.83351563 -1.36164062 6.04203125 -1.64453125 5.2265625 C-2 3 -2 3 0 0 Z " fill="#111311" transform="translate(523,458)"/>
<path d="M0 0 C1.875 0.625 1.875 0.625 4 2 C5.57312411 5.61818544 6 8.02093353 6 12 C3 11 3 11 2.05078125 9.2578125 C1.80714844 8.55398438 1.56351563 7.85015625 1.3125 7.125 C1.06113281 6.42632813 0.80976562 5.72765625 0.55078125 5.0078125 C0 3 0 3 0 0 Z " fill="#0C0E0D" transform="translate(534,706)"/>
<path d="M0 0 C1.50433594 0.01353516 1.50433594 0.01353516 3.0390625 0.02734375 C3.80992187 0.03894531 4.58078125 0.05054688 5.375 0.0625 C5.375 1.0525 5.375 2.0425 5.375 3.0625 C1.085 3.0625 -3.205 3.0625 -7.625 3.0625 C-7.625 2.4025 -7.625 1.7425 -7.625 1.0625 C-4.98041621 -0.25979189 -2.94738699 -0.03427194 0 0 Z " fill="#04090A" transform="translate(514.625,530.9375)"/>
<path d="M0 0 C2.97 0.495 2.97 0.495 6 1 C6 1.66 6 2.32 6 3 C6.5775 3.103125 7.155 3.20625 7.75 3.3125 C10.32049158 4.09792798 11.93657284 5.30504197 14 7 C8.06666693 6.59080462 4.61951506 5.81109992 0 2 C0 1.34 0 0.68 0 0 Z " fill="#111214" transform="translate(408,423)"/>
<path d="M0 0 C2.31 0 4.62 0 7 0 C6.67 1.65 6.34 3.3 6 5 C4.02 5 2.04 5 0 5 C0 3.35 0 1.7 0 0 Z " fill="#F5F6F5" transform="translate(382,575)"/>
<path d="M0 0 C1.91796875 0.79296875 1.91796875 0.79296875 4 2 C5.72461906 6.35261001 6.36744847 9.48742006 5 14 C3.38274466 10.99049877 2.32417377 8.02896392 1.375 4.75 C0.98441406 3.41195312 0.98441406 3.41195312 0.5859375 2.046875 C0.39257812 1.37140625 0.19921875 0.6959375 0 0 Z " fill="#121413" transform="translate(508,542)"/>
<path d="M0 0 C0.66 0.33 1.32 0.66 2 1 C1.05714286 7.91428571 1.05714286 7.91428571 -1 11 C-1.99 11.33 -2.98 11.66 -4 12 C-3.45660208 7.43545749 -2.20536179 4.0271824 0 0 Z " fill="#0A0D0E" transform="translate(619,530)"/>
<path d="M0 0 C0.66 0.99 1.32 1.98 2 3 C1.67 3.33 1.34 3.66 1 4 C2.65 3.34 4.3 2.68 6 2 C4.53563715 6.63714903 4.53563715 6.63714903 2.0625 8.3125 C0 9 0 9 -3 9 C-2.01 6.03 -1.02 3.06 0 0 Z " fill="#1E201F" transform="translate(388,429)"/>
<path d="M0 0 C1 1 2 2 3 3 C3.804375 3.6496875 3.804375 3.6496875 4.625 4.3125 C6.61733972 6.7576442 6.80216473 8.90058074 7 12 C6.34 12.66 5.68 13.32 5 14 C4.67 12.02 4.34 10.04 4 8 C3.34 8 2.68 8 2 8 C0.23537317 4.91190305 0 3.76687864 0 0 Z " fill="#111212" transform="translate(544,418)"/>
<path d="M0 0 C0.66 0.33 1.32 0.66 2 1 C1.44894091 4.9492568 0.61064629 8.34920174 -1 12 C-1.99 12 -2.98 12 -4 12 C-2 3.42857143 -2 3.42857143 0 0 Z " fill="#0B0C0E" transform="translate(413,382)"/>
<path d="M0 0 C2.82249951 1.03491649 3.83374226 1.69915265 5.3125 4.375 C6.02770914 7.10579853 5.9659657 8.39189261 5 11 C1.71779105 9.35889552 1.25429211 6.30677012 0 3 C0 2.01 0 1.02 0 0 Z " fill="#121313" transform="translate(535,614)"/>
<path d="M0 0 C2.46301423 2.46301423 2.76766521 4.27360036 3.625 7.625 C3.88539063 8.62789063 4.14578125 9.63078125 4.4140625 10.6640625 C4.60742188 11.43492187 4.80078125 12.20578125 5 13 C4.01 13 3.02 13 2 13 C-1.62870159 4.738041 -1.62870159 4.738041 0 0 Z " fill="#0B0D0D" transform="translate(501,401)"/>
<path d="M0 0 C1.12377697 3.30435084 0.89554742 5.0506862 -0.4375 8.25 C-0.72496094 8.95640625 -1.01242187 9.6628125 -1.30859375 10.390625 C-1.53675781 10.92171875 -1.76492188 11.4528125 -2 12 C-2.99 11.67 -3.98 11.34 -5 11 C-4.21205747 7.58558238 -3.23882213 4.27923505 -2 1 C-1.34 0.67 -0.68 0.34 0 0 Z " fill="#0D100E" transform="translate(427,334)"/>
<path d="M0 0 C4.29 0.33 8.58 0.66 13 1 C12.67 1.99 12.34 2.98 12 4 C8.04 3.67 4.08 3.34 0 3 C0 2.01 0 1.02 0 0 Z " fill="#151717" transform="translate(397,533)"/>
<path d="M0 0 C0 0.66 0 1.32 0 2 C-0.763125 2.04125 -1.52625 2.0825 -2.3125 2.125 C-5.32405113 2.77823609 -5.32405113 2.77823609 -6.8125 6.0625 C-7.204375 7.031875 -7.59625 8.00125 -8 9 C-8.66 9 -9.32 9 -10 9 C-9.6875 5.625 -9.6875 5.625 -9 2 C-5.5647952 -0.29013653 -4.014669 -0.17842973 0 0 Z " fill="#090B0C" transform="translate(406,420)"/>
<path d="M0 0 C2 1 2 1 3.125 3.75 C3.91973395 6.70186896 4.17810598 8.97219837 4 12 C3.34 12 2.68 12 2 12 C1.4654744 10.75579353 0.94791389 9.50429064 0.4375 8.25 C0.14746094 7.55390625 -0.14257812 6.8578125 -0.44140625 6.140625 C-1.07831803 3.69987216 -0.80248831 2.3596345 0 0 Z " fill="#0C0E0D" transform="translate(462,517)"/>
<path d="M0 0 C0.33 0.66 0.66 1.32 1 2 C-1.64 5.3 -4.28 8.6 -7 12 C-7 7.42857143 -7 7.42857143 -6 5 C-4.10430756 3.15183188 -2.10951452 1.61579835 0 0 Z " fill="#0A0C0E" transform="translate(355,513)"/>
<path d="M0 0 C0.66 0.33 1.32 0.66 2 1 C2.6328125 3.50390625 2.6328125 3.50390625 3.125 6.5625 C3.29257812 7.57441406 3.46015625 8.58632813 3.6328125 9.62890625 C3.75398438 10.41136719 3.87515625 11.19382812 4 12 C3.01 12 2.02 12 1 12 C-0.80619523 7.53763531 -1.11658501 4.68965706 0 0 Z " fill="#0F1012" transform="translate(485,476)"/>
<path d="M0 0 C1.91796875 0.359375 1.91796875 0.359375 4 1 C5.68644932 3.89105597 6.06919665 5.48102512 5.625 8.8125 C5.41875 9.534375 5.2125 10.25625 5 11 C3 10 3 10 2.1484375 7.71484375 C1.89320313 6.79832031 1.63796875 5.88179687 1.375 4.9375 C1.11460937 4.01839844 0.85421875 3.09929688 0.5859375 2.15234375 C0.39257812 1.44207031 0.19921875 0.73179687 0 0 Z " fill="#121314" transform="translate(519,572)"/>
<path d="M0 0 C2.21399303 3.79541663 3.00980198 7.75629421 4 12 C3.01 11.67 2.02 11.34 1 11 C0.05078125 8.93359375 0.05078125 8.93359375 -0.6875 6.4375 C-0.93886719 5.61121094 -1.19023437 4.78492188 -1.44921875 3.93359375 C-1.63097656 3.29550781 -1.81273437 2.65742188 -2 2 C-1.34 1.34 -0.68 0.68 0 0 Z " fill="#101211" transform="translate(463,299)"/>
<path d="M0 0 C0.66 0 1.32 0 2 0 C1.56802365 4.7517398 0.67230705 6.92000054 -3 10 C-3.66 9.67 -4.32 9.34 -5 9 C-3.35 6.03 -1.7 3.06 0 0 Z " fill="#0E0E0F" transform="translate(592,601)"/>
<path d="M0 0 C0.66 0 1.32 0 2 0 C1.85892253 1.45880109 1.71197585 2.91703551 1.5625 4.375 C1.48128906 5.18710937 1.40007812 5.99921875 1.31640625 6.8359375 C1 9 1 9 0 11 C-0.66 11 -1.32 11 -2 11 C-1.85957123 9.35369672 -1.71250671 7.70795821 -1.5625 6.0625 C-1.48128906 5.14597656 -1.40007812 4.22945313 -1.31640625 3.28515625 C-1 1 -1 1 0 0 Z " fill="#0A0C0B" transform="translate(375,483)"/>
<path d="M0 0 C0.99 0.33 1.98 0.66 3 1 C1.9375 3.375 1.9375 3.375 0 6 C-3.6875 7.3125 -3.6875 7.3125 -7 8 C-5.38405168 5.95880212 -3.7143618 3.95927063 -2 2 C-1.34 2 -0.68 2 0 2 C0 1.34 0 0.68 0 0 Z " fill="#0D0F0F" transform="translate(668,428)"/>
<path d="M0 0 C2 1 2 1 3.125 3.8125 C4 7 4 7 4 11 C3.34 11 2.68 11 2 11 C-1.07692308 4.6 -1.07692308 4.6 -0.6875 1.5625 C-0.460625 1.046875 -0.23375 0.53125 0 0 Z " fill="#0A0C0C" transform="translate(495,386)"/>
<path d="M0 0 C2.3129482 2.3129482 2.49580975 3.47904875 3.125 6.625 C3.29257812 7.44226563 3.46015625 8.25953125 3.6328125 9.1015625 C3.81457031 10.04128906 3.81457031 10.04128906 4 11 C1 10 1 10 -0.25 7.75 C-1.07700926 4.71763271 -0.85394079 2.98879276 0 0 Z " fill="#070A08" transform="translate(519,663)"/>
<path d="M0 0 C1.5 1.125 1.5 1.125 3 3 C3.125 5.9375 3.125 5.9375 3 9 C3.43941523 11.26566343 3.43941523 11.26566343 4 13 C0.69471707 10.59615787 0.1623116 7.61485854 -0.765625 3.83984375 C-1 2 -1 2 0 0 Z " fill="#101212" transform="translate(515,556)"/>
<path d="M0 0 C2 2 2 2 2.08203125 4.3125 C1.99308594 5.199375 1.90414062 6.08625 1.8125 7 C1.73644531 7.886875 1.66039062 8.77375 1.58203125 9.6875 C1 12 1 12 -2 14 C-1.43393721 9.30976546 -0.81462495 4.65499974 0 0 Z " fill="#212321" transform="translate(637,457)"/>
<path d="M0 0 C3.84375 1.765625 3.84375 1.765625 5.25 3.875 C6 6 6 6 6 10 C5.01 9.67 4.02 9.34 3 9 C2.05078125 6.93359375 2.05078125 6.93359375 1.3125 4.4375 C1.06113281 3.61121094 0.80976563 2.78492188 0.55078125 1.93359375 C0.36902344 1.29550781 0.18726563 0.65742188 0 0 Z " fill="#101110" transform="translate(473,333)"/>
<path d="M0 0 C1.27875 0.103125 2.5575 0.20625 3.875 0.3125 C4.95394531 0.39951172 4.95394531 0.39951172 6.0546875 0.48828125 C8 1 8 1 10 4 C6.6868604 5.04127245 5.39801692 5.18574123 2.1875 3.6875 C1.465625 3.130625 0.74375 2.57375 0 2 C0 1.34 0 0.68 0 0 Z " fill="#0A0F0E" transform="translate(601,530)"/>
<path d="M0 0 C4.29 0 8.58 0 13 0 C10.50494038 2.49505962 9.32671112 2.35948376 5.875 2.625 C4.96492188 2.69976562 4.05484375 2.77453125 3.1171875 2.8515625 C2.06917969 2.92503906 2.06917969 2.92503906 1 3 C0.67 2.01 0.34 1.02 0 0 Z " fill="#080A0B" transform="translate(404,414)"/>
<path d="M0 0 C0.99 0.33 1.98 0.66 3 1 C2.34 2.98 1.68 4.96 1 7 C0.34 7 -0.32 7 -1 7 C-1.33 7.99 -1.66 8.98 -2 10 C-2.98120464 6.94736336 -2.98120464 5.05263664 -2 2 C-1.34 2 -0.68 2 0 2 C0 1.34 0 0.68 0 0 Z " fill="#0E1112" transform="translate(401,401)"/>
<path d="M0 0 C1.9375 0.9375 1.9375 0.9375 4 3 C4.66174825 5.9858081 4.87205948 8.94861869 5 12 C2.2289312 9.65408148 1.47940716 7.85223799 0.8125 4.3125 C0.65394531 3.50425781 0.49539063 2.69601563 0.33203125 1.86328125 C0.22246094 1.24839844 0.11289062 0.63351563 0 0 Z " fill="#0B0C0E" transform="translate(476,241)"/>
<path d="M0 0 C0.66 0.66 1.32 1.32 2 2 C1.6875 4.375 1.6875 4.375 1 7 C0.814375 7.763125 0.62875 8.52625 0.4375 9.3125 C0.293125 9.869375 0.14875 10.42625 0 11 C-0.99 10.67 -1.98 10.34 -3 10 C-2.01 6.7 -1.02 3.4 0 0 Z " fill="#181A19" transform="translate(596,581)"/>
<path d="M0 0 C0.99 0 1.98 0 3 0 C4.20272819 2.40545638 4.10071472 3.94996953 4.0625 6.625 C4.05347656 7.44226563 4.04445313 8.25953125 4.03515625 9.1015625 C4.02355469 9.72804688 4.01195312 10.35453125 4 11 C3.34 10.67 2.68 10.34 2 10 C1.3671875 7.71484375 1.3671875 7.71484375 0.875 4.9375 C0.70742188 4.01839844 0.53984375 3.09929687 0.3671875 2.15234375 C0.24601563 1.44207031 0.12484375 0.73179687 0 0 Z " fill="#101211" transform="translate(539,404)"/>
<path d="M0 0 C1.07694171 2.80004844 0.95876997 4.1911574 0.3125 7.1875 C-1 10 -1 10 -3.125 10.875 C-3.74375 10.91625 -4.3625 10.9575 -5 11 C-4.32902328 6.80639551 -2.1441606 3.59665648 0 0 Z " fill="#0A0C0B" transform="translate(447,282)"/>
<path d="M0 0 C0.66 0 1.32 0 2 0 C1.67 2.64 1.34 5.28 1 8 C0.34 8 -0.32 8 -1 8 C-1 8.66 -1 9.32 -1 10 C-1.99 10 -2.98 10 -4 10 C-3.71125 9.46375 -3.4225 8.9275 -3.125 8.375 C-1.83288192 5.64719516 -0.91441408 2.87387282 0 0 Z " fill="#0B0D0B" transform="translate(421,348)"/>
<path d="M0 0 C0.33 0.66 0.66 1.32 1 2 C3.02463255 2.65213292 3.02463255 2.65213292 5 3 C4.50351065 7.46840411 4.31012244 8.68987756 1 12 C1.33 9.03 1.66 6.06 2 3 C1.34 3 0.68 3 0 3 C0 2.01 0 1.02 0 0 Z " fill="#1D201E" transform="translate(440,294)"/>
<path d="M0 0 C0.99 0 1.98 0 3 0 C3.33 0.99 3.66 1.98 4 3 C3.34 3 2.68 3 2 3 C2 4.32 2 5.64 2 7 C0.68 7 -0.64 7 -2 7 C-1.34 4.69 -0.68 2.38 0 0 Z " fill="#0E110F" transform="translate(608,541)"/>
<path d="M0 0 C0.33 0.99 0.66 1.98 1 3 C0.34 3 -0.32 3 -1 3 C-1.33 4.65 -1.66 6.3 -2 8 C-2.99 7.67 -3.98 7.34 -5 7 C-4.75 4.625 -4.75 4.625 -4 2 C-1.9375 0.6875 -1.9375 0.6875 0 0 Z " fill="#0E100F" transform="translate(467,235)"/>
<path d="M0 0 C-0.66 1.32 -1.32 2.64 -2 4 C-2.66 4 -3.32 4 -4 4 C-4 4.66 -4 5.32 -4 6 C-4.99 6 -5.98 6 -7 6 C-6.6875 4.125 -6.6875 4.125 -6 2 C-3 0 -3 0 0 0 Z " fill="#0B0E0D" transform="translate(346,524)"/>
<path d="M0 0 C0.66 0 1.32 0 2 0 C0.66666667 4 -0.66666667 8 -2 12 C-2.33 11.34 -2.66 10.68 -3 10 C-3.66 10 -4.32 10 -5 10 C-4.67 9.01 -4.34 8.02 -4 7 C-3.34 7 -2.68 7 -2 7 C-1.855625 6.21625 -1.71125 5.4325 -1.5625 4.625 C-1 2 -1 2 0 0 Z " fill="#0A0C0B" transform="translate(436,310)"/>
<path d="M0 0 C1.32 0.33 2.64 0.66 4 1 C4.33 3.31 4.66 5.62 5 8 C4.67 7.34 4.34 6.68 4 6 C3.01 5.67 2.02 5.34 1 5 C0.67 3.35 0.34 1.7 0 0 Z " fill="#121617" transform="translate(553,663)"/>
<path d="M0 0 C1.32 0.33 2.64 0.66 4 1 C4.33 2.98 4.66 4.96 5 7 C4.01 7 3.02 7 2 7 C1.34 4.69 0.68 2.38 0 0 Z " fill="#111313" transform="translate(501,307)"/>
<path d="M0 0 C1.5625 1.6875 1.5625 1.6875 3 4 C2.6875 6.75 2.6875 6.75 2 9 C0.4375 7.3125 0.4375 7.3125 -1 5 C-0.6875 2.25 -0.6875 2.25 0 0 Z " fill="#0B0D0C" transform="translate(498,609)"/>
<path d="M0 0 C1.74627478 2.61941217 2.38722388 4.03824877 3 7 C1.35 7 -0.3 7 -2 7 C-1.125 2.25 -1.125 2.25 0 0 Z " fill="#D2D3D2" transform="translate(576,374)"/>
<path d="M0 0 C2.88437779 1.29299694 4.87219421 2.65941363 7 5 C5.02 5 3.04 5 1 5 C0.67 3.35 0.34 1.7 0 0 Z " fill="#080B0A" transform="translate(539,719)"/>
<path d="M0 0 C0.99 0.99 1.98 1.98 3 3 C1 6 1 6 -2 7 C-2.33 6.34 -2.66 5.68 -3 5 C-1.5625 2.375 -1.5625 2.375 0 0 Z " fill="#121512" transform="translate(579,632)"/>
<path d="M0 0 C1.74627478 2.61941217 2.38722388 4.03824877 3 7 C1.35 7 -0.3 7 -2 7 C-1.34 4.69 -0.68 2.38 0 0 Z " fill="#DBDCDB" transform="translate(320,580)"/>
<path d="M0 0 C3.125 -0.1875 3.125 -0.1875 6 0 C6 0.99 6 1.98 6 3 C3.36 3 0.72 3 -2 3 C-1.34 2.01 -0.68 1.02 0 0 Z " fill="#010403" transform="translate(332,536)"/>
<path d="M0 0 C1.9451 2.91765 2.45276317 4.62537285 3 8 C2.01 8 1.02 8 0 8 C-0.38063221 5.6739143 -0.71269945 3.33944736 -1 1 C-0.67 0.67 -0.34 0.34 0 0 Z " fill="#0A0D0C" transform="translate(459,508)"/>
<path d="M0 0 C0.66 0 1.32 0 2 0 C1.34 2.97 0.68 5.94 0 9 C-0.66 8.67 -1.32 8.34 -2 8 C-2.20086443 4.28400809 -2.1519437 3.22791555 0 0 Z " fill="#101113" transform="translate(420,365)"/>
<path d="M0 0 C0.33 1.32 0.66 2.64 1 4 C0.01 4.495 0.01 4.495 -1 5 C-1.65213292 7.02463255 -1.65213292 7.02463255 -2 9 C-2.33 6.69 -2.66 4.38 -3 2 C-2.01 1.34 -1.02 0.68 0 0 Z " fill="#0D0E0D" transform="translate(415,365)"/>
<path d="M0 0 C2.0625 1.75 2.0625 1.75 4 4 C3.75 6.25 3.75 6.25 3 8 C1.5 6.8125 1.5 6.8125 0 5 C-0.1875 2.3125 -0.1875 2.3125 0 0 Z " fill="#121315" transform="translate(498,296)"/>
<path d="M0 0 C1.25541557 3.76624671 0.37061958 5.37188934 -1 9 C-1.66 9 -2.32 9 -3 9 C-3.33 7.68 -3.66 6.36 -4 5 C-3.01 4.67 -2.02 4.34 -1 4 C-0.26676204 1.98491642 -0.26676204 1.98491642 0 0 Z " fill="#0C0E0D" transform="translate(607,549)"/>
<path d="M0 0 C1.5 1.25 1.5 1.25 3 3 C3 4.32 3 5.64 3 7 C2.01 6.67 1.02 6.34 0 6 C-0.38218767 4.34385343 -0.71395102 2.67542976 -1 1 C-0.67 0.67 -0.34 0.34 0 0 Z " fill="#0D1010" transform="translate(571,483)"/>
<path d="M0 0 C1.39195915 4.17587745 -0.17676781 6.13474776 -2 10 C-3.01136941 7.26930259 -3.04557718 6.13998707 -2.125 3.3125 C-1 1 -1 1 0 0 Z " fill="#090B0A" transform="translate(453,267)"/>
<path d="M0 0 C0.5534764 2.07553648 1 3.84365964 1 6 C-0.32 6 -1.64 6 -3 6 C-2.625 3.5625 -2.625 3.5625 -2 1 C-1.34 0.67 -0.68 0.34 0 0 Z " fill="#0D0F0D" transform="translate(623,508)"/>
<path d="M0 0 C0.33 0 0.66 0 1 0 C1.25 6.625 1.25 6.625 -1 10 C-1.66 10 -2.32 10 -3 10 C-2.01 6.7 -1.02 3.4 0 0 Z " fill="#1E211E" transform="translate(631,481)"/>
<path d="M0 0 C0.66 0 1.32 0 2 0 C1.125 4.75 1.125 4.75 0 7 C-0.66 7 -1.32 7 -2 7 C-1.125 2.25 -1.125 2.25 0 0 Z " fill="#090A0C" transform="translate(390,443)"/>
<path d="M0 0 C-0.99 0.495 -0.99 0.495 -2 1 C-2 1.66 -2 2.32 -2 3 C-4.97 3 -7.94 3 -11 3 C-11 2.67 -11 2.34 -11 2 C-7.17679443 0.57741188 -4.08718695 -0.24042276 0 0 Z " fill="#282928" transform="translate(612,424)"/>
<path d="M0 0 C1.61949011 2.57213134 2.04408751 3.67669159 1.625 6.75 C1.41875 7.4925 1.2125 8.235 1 9 C-0.74627478 6.38058783 -1.38722388 4.96175123 -2 2 C-1.34 2 -0.68 2 0 2 C0 1.34 0 0.68 0 0 Z " fill="#141515" transform="translate(499,395)"/>
<path d="M0 0 C0.99 0.99 1.98 1.98 3 3 C2.34 4.32 1.68 5.64 1 7 C0.34 6.34 -0.32 5.68 -1 5 C-0.625 2.375 -0.625 2.375 0 0 Z " fill="#111215" transform="translate(495,287)"/>
<path d="M0 0 C0.33 0 0.66 0 1 0 C1.17942163 3.94727588 1.09350689 6.5980513 -1 10 C-1.66 10 -2.32 10 -3 10 C-2.01 6.7 -1.02 3.4 0 0 Z " fill="#232523" transform="translate(591,585)"/>
<path d="M0 0 C0.93423645 3.01031744 1.04449911 3.86650268 0 7 C-0.99 7 -1.98 7 -3 7 C-2.38722388 4.03824877 -1.74627478 2.61941217 0 0 Z " fill="#0A0B0B" transform="translate(599,584)"/>
<path d="M0 0 C3 3.75 3 3.75 3 6 C1.68 6 0.36 6 -1 6 C-1.042721 4.33388095 -1.04063832 2.66617115 -1 1 C-0.67 0.67 -0.34 0.34 0 0 Z " fill="#ECECEB" transform="translate(416,581)"/>
<path d="M0 0 C0.33 0.99 0.66 1.98 1 3 C-1.31 3 -3.62 3 -6 3 C-6 2.34 -6 1.68 -6 1 C-4 0 -4 0 0 0 Z " fill="#101213" transform="translate(513,531)"/>
<path d="M0 0 C3.16115776 1.36983503 3.9927092 1.9890638 6 5 C4.35 4.67 2.7 4.34 1 4 C0.67 2.68 0.34 1.36 0 0 Z " fill="#232526" transform="translate(589,521)"/>
<path d="M0 0 C2.89932357 2.39509338 3.50168276 4.31245243 4 8 C2.68 7.34 1.36 6.68 0 6 C0 4.02 0 2.04 0 0 Z " fill="#222426" transform="translate(475,235)"/>
</svg>
